<svg width="388" height="323" viewBox="0 0 388 323" fill="none" xmlns="http://www.w3.org/2000/svg">
<g clip-path="url(#clip0_172_5752)">
<path d="M21.4603 103.289C21.4603 116.728 24.6508 127.79 30.1853 137.266C32.0119 140.387 34.0855 143.358 36.3862 146.15C56.7317 170.976 94.5577 184.564 128.745 206.573C229.661 271.54 240.592 167.438 236.034 103.289C234.195 77.4044 224.092 53.6944 208.04 35.5402C204.668 31.7221 201.027 28.1504 197.143 24.8526C178.919 9.36938 155.376 0 128.745 0C83.0559 0 44.0387 27.4929 28.569 66.2353C23.8658 78.025 21.4534 90.5996 21.4603 103.289Z" fill="#9E99FF"/>
<path d="M105.887 23.2783L208.04 35.5403C204.668 31.7222 201.027 28.1504 197.143 24.8526L105.887 23.2783Z" fill="#CFCFDE"/>
<path d="M30.1852 137.266C32.0119 140.387 34.0854 143.358 36.3861 146.15L123.888 135.65L30.1852 137.266Z" fill="#CFCFDE"/>
<path d="M24.9995 76.8885L173.297 57.6989L28.5691 66.2352C27.1792 69.7165 25.9874 73.2732 24.9995 76.8885Z" fill="#CFCFDE"/>
<path d="M225.974 27.5128C225.974 27.7765 225.982 28.0363 226.005 28.2923C226.121 29.8792 226.59 31.4202 227.379 32.8032C228.167 34.1862 229.255 35.3763 230.563 36.2869C231.87 37.1975 233.365 37.8056 234.938 38.067C236.512 38.3283 238.123 38.2363 239.656 37.7976C241.189 37.359 242.605 36.5847 243.8 35.5312C244.995 34.4777 245.939 33.1716 246.565 31.7079C247.19 30.2442 247.48 28.6598 247.414 27.0701C247.347 25.4805 246.927 23.9255 246.182 22.5186C245.951 22.0777 245.688 21.6549 245.393 21.2538C244.11 19.4792 242.313 18.1397 240.244 17.4159C238.174 16.6922 235.932 16.619 233.82 17.2062C231.707 17.7935 229.826 19.013 228.43 20.7001C227.034 22.3873 226.19 24.461 226.013 26.6416C225.986 26.9282 225.974 27.2186 225.974 27.5128Z" fill="#9E99FF"/>
<path d="M225.974 27.5128C225.974 27.7764 225.982 28.0363 226.005 28.2923L242.061 26.3665L226.013 26.6416C225.986 26.9281 225.974 27.2186 225.974 27.5128Z" fill="#CFCFDE"/>
<path d="M229.804 32.9044L244.658 34.6889C245.079 34.22 245.459 33.7149 245.791 33.1795L229.804 32.9044Z" fill="#CFCFDE"/>
<path d="M234.018 21.059L246.182 22.5186C245.951 22.0777 245.688 21.6549 245.393 21.2538L234.018 21.059Z" fill="#CFCFDE"/>
<path d="M79.0008 220.145C79.1247 220.378 79.2536 220.604 79.3942 220.819C80.2422 222.167 81.3809 223.309 82.7271 224.161C84.0734 225.014 85.5934 225.557 87.1764 225.75C88.7595 225.942 90.3657 225.78 91.878 225.276C93.3904 224.771 94.7708 223.936 95.9188 222.831C97.0667 221.727 97.9533 220.381 98.514 218.891C99.0746 217.402 99.2952 215.806 99.1597 214.221C99.0241 212.636 98.5359 211.101 97.7305 209.728C96.925 208.354 95.8227 207.178 94.5039 206.283C94.093 206.001 93.6614 205.751 93.2126 205.535C91.2459 204.567 89.029 204.224 86.861 204.553C84.693 204.881 82.678 205.865 81.088 207.372C79.498 208.879 78.4094 210.836 77.969 212.979C77.5287 215.122 77.7577 217.348 78.6253 219.358C78.7362 219.623 78.8626 219.885 79.0008 220.145Z" fill="#9E99FF"/>
<path d="M79.0009 220.145C79.1248 220.378 79.2536 220.604 79.3942 220.819L92.6716 211.609L78.6253 219.358C78.7363 219.623 78.8626 219.885 79.0009 220.145Z" fill="#CFCFDE"/>
<path d="M84.9173 223.116L98.8758 217.746C99.0278 217.135 99.1256 216.511 99.168 215.883L84.9173 223.116Z" fill="#CFCFDE"/>
<path d="M83.0731 210.683L94.5039 206.283C94.0931 206.002 93.6614 205.751 93.2127 205.535L83.0731 210.683Z" fill="#CFCFDE"/>
<path d="M3.04548 35.7094C2.86096 35.8981 2.68463 36.0895 2.52193 36.2888C1.49445 37.5056 0.751921 38.9357 0.348484 40.475C-0.0549545 42.0143 -0.109159 43.624 0.1898 45.1868C0.488762 46.7496 1.13339 48.2263 2.07669 49.5091C3.01999 50.792 4.23821 51.8488 5.64266 52.6026C7.0471 53.3564 8.60238 53.7881 10.1952 53.8664C11.7881 53.9447 13.3783 53.6675 14.8502 53.0551C16.3221 52.4427 17.6386 51.5104 18.7037 50.3263C19.7688 49.1421 20.5558 47.7358 21.0072 46.2099C21.1507 45.7336 21.2578 45.2472 21.3276 44.7548C21.6514 42.591 21.3022 40.3802 20.3272 38.4206C19.3522 36.4609 17.7983 34.8467 15.875 33.7957C13.9517 32.7447 11.7516 32.3074 9.57148 32.5428C7.39131 32.7783 5.33595 33.6751 3.68264 35.1123C3.46289 35.2988 3.25139 35.4987 3.04548 35.7094Z" fill="#9E99FF"/>
<path d="M3.04519 35.7093C2.86067 35.8981 2.68434 36.0895 2.52164 36.2887L15.3638 46.0939L3.68235 35.1123C3.46259 35.2988 3.2511 35.4987 3.04519 35.7093Z" fill="#CFCFDE"/>
<path d="M2.01407 42.2371L11.3987 53.8607C12.0287 53.8187 12.6537 53.7213 13.2666 53.5698L2.01407 42.2371Z" fill="#CFCFDE"/>
<path d="M13.3201 36.6915L21.0071 46.2098C21.1506 45.7335 21.2577 45.2471 21.3274 44.7547L13.3201 36.6915Z" fill="#CFCFDE"/>
<path d="M204.239 232.879C204.239 232.879 180.705 233.858 180.705 239.727C180.705 245.597 207.181 239.727 207.181 239.727L204.239 232.879Z" fill="#9E616A"/>
<path d="M239.541 322.882L283.668 319.948L285.629 296.468L295.435 317.013L338.581 311.143C337.6 273.968 321.911 237.771 320.93 232.879C319.95 227.988 317.606 207.776 317.606 207.776C313.321 198.707 290.865 197.856 273.264 198.678C265.968 199.011 259.496 199.637 255.505 200.087C252.867 200.38 251.308 200.596 251.308 200.596C244.277 207.825 239.747 217.677 236.962 228.682C226.921 268.333 239.541 322.882 239.541 322.882Z" fill="#2F2E41"/>
<path d="M288.571 95.918C275.031 95.918 264.056 84.9681 264.056 71.4607C264.056 57.9532 275.031 47.0033 288.571 47.0033C302.11 47.0033 313.085 57.9532 313.085 71.4607C313.085 84.9681 302.11 95.918 288.571 95.918Z" fill="#9E616A"/>
<path d="M305.241 77.3304C305.241 77.3304 312.105 107.658 322.891 116.462C333.678 125.267 280.726 116.462 280.726 116.462C280.726 116.462 292.493 96.8963 283.668 88.0917C274.842 79.287 305.241 77.3304 305.241 77.3304Z" fill="#9E616A"/>
<path d="M255.231 202.552L271.499 204.352L317.008 209.4C317.008 209.4 317.224 208.823 317.606 207.776C320.911 198.786 336.826 155.036 338.581 141.898C340.542 127.223 319.95 109.614 319.95 109.614C319.95 109.614 300.338 105.701 294.454 105.701C288.571 105.701 265.036 114.506 265.036 114.506L256.26 193.268L255.505 200.087L255.231 202.552Z" fill="#CFCFDE"/>
<path opacity="0.15" d="M236.962 228.682L269.939 209.4C269.939 209.4 270.518 207.522 271.499 204.352C271.989 202.767 272.587 200.85 273.264 198.678C277.068 186.488 283.452 166.375 288.571 151.681C296.415 129.18 258.172 191.791 258.172 191.791L256.26 193.268L255.505 200.087C252.867 200.38 251.308 200.596 251.308 200.596C244.277 207.825 239.747 217.677 236.962 228.682Z" fill="#2F2E41"/>
<path d="M280.726 116.462C280.726 116.462 290.532 129.18 282.687 151.681C274.842 174.182 264.056 209.4 264.056 209.4L207.181 242.662L199.336 232.879L252.289 191.791C252.289 191.791 254.25 117.441 264.056 114.506C273.862 111.571 280.726 116.462 280.726 116.462Z" fill="#CFCFDE"/>
<path d="M329.265 202.063C329.265 202.063 315.537 230.433 309.653 227.499C303.77 224.564 324.362 195.215 324.362 195.215L329.265 202.063Z" fill="#9E616A"/>
<path d="M330.736 124.289L382.708 167.334C382.708 167.334 402.319 181.03 366.037 190.813C329.755 200.596 326.814 206.465 326.814 206.465C326.814 206.465 322.891 193.748 317.988 195.704L360.154 175.16L325.833 154.616L330.736 124.289Z" fill="#CFCFDE"/>
<path d="M351.624 91.5344C348.896 90.1867 342.873 87.4669 337.742 84.1902C338.102 73.5301 336.786 63.8532 332.935 58.7237C330.773 53.8263 326.233 48.9232 322.677 45.0619C313.945 35.5797 294.637 30.2868 291.213 35.0245C265.312 35.5346 262.585 55.7896 262.585 55.7896C262.72 64.2617 271.545 64.5298 279.277 64.2211C278.585 70.0049 280.43 76.0147 285.773 78.6799C295.99 83.7765 299.055 90.4021 293.946 94.9891C288.838 99.5761 279.642 111.808 291.903 114.866C304.164 117.924 305.696 124.04 302.12 126.588C298.544 129.136 310.294 122.001 310.294 122.001C310.294 122.001 312.337 134.233 323.065 131.175C324.027 130.901 324.988 130.199 325.932 129.149C328.83 132.325 331.415 134.203 333.363 134.213C344.52 134.272 343.182 121.943 343.182 121.943C343.182 121.943 356.425 125.654 352.293 124.162C348.16 122.67 347.983 116.368 358.963 110.125C369.943 103.883 357.783 94.5774 351.624 91.5344Z" fill="#2F2E41"/>
<path d="M214.733 123.491L214.911 123.468L214.477 125.113C214.067 127.409 213.471 129.668 212.696 131.868L199.97 180.132C199.563 181.672 198.715 183.061 197.529 184.127C196.343 185.193 194.871 185.891 193.293 186.135L167.341 190.14C165.663 190.399 163.945 190.132 162.426 189.375C160.907 188.619 159.66 187.411 158.859 185.917L134.195 139.958C133.425 138.685 132.72 137.373 132.085 136.027L131.248 134.466L131.379 134.449C128.764 128.279 127.613 121.59 128.016 114.903C128.418 108.216 130.364 101.712 133.699 95.8985C137.035 90.0848 141.672 85.1182 147.248 81.3859C152.824 77.6536 159.188 75.2564 165.845 74.3813C172.503 73.5061 179.272 74.1766 185.627 76.3404C191.982 78.5043 197.75 82.103 202.481 86.8562C207.213 91.6093 210.78 97.3884 212.905 103.743C215.03 110.098 215.656 116.856 214.733 123.491H214.733Z" fill="#2F2E41"/>
<path d="M165.748 193.294C166.205 193.293 166.662 193.258 167.113 193.189L194.241 189.001C195.964 188.736 197.572 187.974 198.867 186.809C200.162 185.645 201.088 184.128 201.531 182.446L214.833 131.998C215.646 129.688 216.271 127.317 216.702 124.907L217.038 122.7C217.943 115.649 217.193 108.485 214.847 101.773C212.501 95.0612 208.624 88.9851 203.52 84.0246C198.417 79.0641 192.228 75.3549 185.441 73.1898C178.655 71.0248 171.457 70.4632 164.416 71.5493L164.533 72.3045C171.498 71.2338 178.617 71.8017 185.322 73.963C192.028 76.1243 198.135 79.8191 203.155 84.7527C208.175 89.6863 211.97 95.7221 214.237 102.379C216.505 109.035 217.181 116.128 216.213 123.092L215.954 124.743C215.527 127.132 214.907 129.484 214.102 131.774L200.79 182.252C200.385 183.79 199.538 185.177 198.354 186.242C197.17 187.307 195.7 188.003 194.124 188.246L166.996 192.433C165.321 192.69 163.607 192.423 162.09 191.668C160.573 190.912 159.328 189.707 158.526 188.216L157.851 188.577C158.617 190.001 159.756 191.192 161.147 192.023C162.537 192.853 164.128 193.292 165.748 193.294Z" fill="#CFCFDE"/>
<path d="M158.867 134.462L175.373 179.425L174.443 179.765L157.936 134.801L158.867 134.462Z" fill="#CFCFDE"/>
<path d="M185.818 130.301L186.808 130.344L184.701 178.182L183.711 178.139L185.818 130.301Z" fill="#CFCFDE"/>
<path d="M168.042 216.165L202.803 210.8C203.061 210.758 203.293 210.617 203.447 210.405C203.601 210.194 203.665 209.931 203.625 209.673C203.585 209.414 203.444 209.183 203.233 209.028C203.022 208.873 202.759 208.808 202.5 208.846L167.739 214.211C167.609 214.23 167.485 214.275 167.373 214.342C167.262 214.409 167.164 214.498 167.087 214.602C167.009 214.707 166.953 214.827 166.922 214.953C166.891 215.08 166.885 215.211 166.905 215.34C166.925 215.469 166.97 215.592 167.039 215.703C167.107 215.815 167.196 215.911 167.301 215.988C167.407 216.065 167.527 216.12 167.654 216.15C167.781 216.18 167.913 216.185 168.042 216.165Z" fill="#2F2E41"/>
<path d="M167.15 208.801L201.911 203.436C202.04 203.416 202.164 203.372 202.276 203.305C202.388 203.238 202.486 203.149 202.563 203.044C202.641 202.939 202.696 202.82 202.728 202.693C202.759 202.567 202.764 202.435 202.744 202.307C202.724 202.178 202.679 202.054 202.611 201.943C202.543 201.832 202.454 201.735 202.348 201.658C202.243 201.582 202.123 201.527 201.996 201.496C201.869 201.466 201.737 201.461 201.608 201.482L166.847 206.847C166.718 206.866 166.594 206.91 166.482 206.978C166.37 207.045 166.273 207.133 166.195 207.238C166.118 207.343 166.062 207.462 166.031 207.589C166 207.715 165.994 207.847 166.014 207.976C166.034 208.104 166.079 208.228 166.147 208.339C166.215 208.45 166.304 208.547 166.41 208.624C166.516 208.701 166.635 208.756 166.762 208.786C166.889 208.816 167.021 208.821 167.15 208.801Z" fill="#2F2E41"/>
<path d="M166.259 201.436L201.02 196.071C201.278 196.03 201.51 195.888 201.664 195.677C201.818 195.465 201.882 195.202 201.842 194.944C201.802 194.686 201.661 194.454 201.45 194.299C201.239 194.144 200.976 194.079 200.717 194.117L165.956 199.482C165.698 199.524 165.466 199.665 165.312 199.877C165.158 200.088 165.094 200.351 165.134 200.609C165.174 200.867 165.315 201.099 165.526 201.254C165.736 201.409 166 201.474 166.259 201.436H166.259Z" fill="#2F2E41"/>
<path d="M186.503 220.45C179.607 221.514 173.423 218.543 172.69 213.814L197.659 209.96C198.393 214.689 193.398 219.386 186.503 220.45Z" fill="#2F2E41"/>
<path d="M174.007 124.989C175.49 124.76 176.718 123.59 177.39 122.806C177.611 122.549 177.826 122.283 178.041 122.016C178.824 121.043 179.564 120.124 180.594 119.645C182.868 118.586 185.547 120.065 187.867 121.651L188.427 120.835C185.877 119.091 182.903 117.48 180.175 118.749C178.936 119.325 178.088 120.378 177.269 121.396C177.06 121.656 176.851 121.914 176.638 122.164C175.938 122.978 174.543 124.299 173.048 123.994C172.418 123.811 171.832 123.502 171.327 123.085C170.941 122.798 170.534 122.542 170.108 122.318C169.245 121.905 168.279 121.756 167.331 121.89C166.383 122.023 165.496 122.434 164.782 123.069C164.527 123.31 164.286 123.564 164.059 123.832C163.613 124.339 163.192 124.817 162.645 124.991C161.835 125.249 160.979 124.787 160.072 124.3C159.137 123.796 158.17 123.275 157.073 123.404C157.037 123.408 157.001 123.413 156.966 123.418C155.014 123.719 154.115 125.873 153.605 127.48L154.55 127.777C155.242 125.593 156.085 124.507 157.189 124.385C157.975 124.293 158.765 124.719 159.601 125.169C160.65 125.734 161.735 126.318 162.945 125.933C163.755 125.676 164.288 125.07 164.804 124.484C165.007 124.244 165.223 124.015 165.45 123.799C166.019 123.301 166.721 122.98 167.47 122.875C168.22 122.769 168.983 122.883 169.668 123.204C170.047 123.405 170.411 123.635 170.755 123.892C171.369 124.392 172.083 124.757 172.849 124.963C173.231 125.04 173.623 125.049 174.007 124.989Z" fill="#CFCFDE"/>
</g>
<defs>
<clipPath id="clip0_172_5752">
<rect width="388" height="322.882" fill="white" transform="matrix(-1 0 0 1 388 0)"/>
</clipPath>
</defs>
</svg>
