<svg width="388" height="283" viewBox="0 0 388 283" fill="none" xmlns="http://www.w3.org/2000/svg">
<g clip-path="url(#clip0_172_5686)">
<path d="M11.8056 249.699C1.92259 241.289 -3.17315 228.691 2.13634 218.034C9.86568 228.758 22.5901 237.203 37.3429 241.402C43.0889 243.037 49.6967 244.386 52.822 248.51C54.7667 251.077 54.9084 254.291 54.0322 257.197C53.1559 260.103 51.3518 262.776 49.5656 265.412L49.5554 266.158C35.5701 262.942 21.6886 258.109 11.8056 249.699Z" fill="white"/>
<path d="M2.43356 218.09C4.09987 227.371 9.55256 236.294 17.8894 243.021C19.6989 244.542 21.7525 245.808 23.9804 246.775C26.2732 247.693 28.7727 248.11 31.277 247.994C33.636 247.926 36.039 247.642 38.3779 248.025C39.525 248.208 40.6196 248.597 41.5964 249.171C42.5731 249.744 43.4119 250.49 44.0625 251.363C45.6131 253.425 46.1281 255.801 46.5288 258.138C46.9737 260.733 47.3835 263.435 49.2738 265.667C49.5028 265.937 48.9549 266.201 48.7262 265.931C45.4374 262.047 46.5378 257.083 44.3187 252.894C43.2833 250.939 41.4915 249.218 38.8128 248.628C36.4705 248.112 33.9922 248.403 31.6044 248.488C29.1573 248.628 26.7052 248.293 24.4134 247.505C22.1311 246.631 20.0198 245.43 18.1611 243.948C14.0913 240.805 10.6139 237.084 7.86461 232.932C4.81351 228.383 2.75212 223.349 1.79134 218.101C1.73378 217.78 2.37638 217.772 2.43356 218.09Z" fill="white"/>
<path d="M15.0329 240.946C13.3357 241.898 11.3527 242.347 9.35984 242.232C7.36697 242.117 5.46333 241.443 3.91375 240.305C3.62027 240.076 4.05858 239.707 4.35245 239.936C5.79316 240.998 7.56594 241.625 9.42153 241.73C11.2771 241.834 13.1222 241.409 14.6972 240.516C15.0297 240.324 15.3636 240.755 15.0329 240.946Z" fill="white"/>
<path d="M30.0867 248.152C30.4168 246.531 30.3634 244.865 29.9299 243.263C29.4964 241.662 28.6928 240.162 27.5718 238.862C27.344 238.591 27.8917 238.328 28.1193 238.598C29.2826 239.953 30.1152 241.516 30.5619 243.183C31.0087 244.85 31.0596 246.583 30.7112 248.269C30.6426 248.59 30.0185 248.471 30.0867 248.152Z" fill="white"/>
<path d="M5.62746 228.248C6.32814 228.022 6.9534 227.638 7.44388 227.132C7.93436 226.627 8.2738 226.016 8.43005 225.359C8.49342 225.037 9.11758 225.157 9.05463 225.476C8.87845 226.202 8.50286 226.875 7.96254 227.435C7.42222 227.994 6.7346 228.422 5.96323 228.677C5.89004 228.711 5.80657 228.721 5.72639 228.705C5.64621 228.69 5.57404 228.651 5.52161 228.594C5.50013 228.566 5.48576 228.534 5.47948 228.5C5.4732 228.466 5.47519 228.432 5.48527 228.399C5.49536 228.366 5.51328 228.335 5.53785 228.309C5.56242 228.283 5.593 228.262 5.62746 228.248Z" fill="white"/>
<path d="M49.0015 205.917C48.9692 206.118 48.9368 206.319 48.9085 206.524C48.4923 209.23 48.3567 211.965 48.5037 214.694C48.5108 214.905 48.522 215.119 48.5368 215.329C49.002 221.968 51.0037 228.445 54.4125 234.34C55.7992 236.747 57.4007 239.048 59.2009 241.22C61.709 244.251 64.7356 247.38 65.7912 250.785C65.9061 251.137 65.9933 251.497 66.0522 251.861L50.7143 266.11C50.6588 266.128 50.6072 266.15 50.5514 266.169L49.9722 266.76C49.8684 266.652 49.7638 266.538 49.6601 266.43C49.5996 266.367 49.5425 266.302 49.482 266.239C49.4428 266.197 49.4036 266.154 49.3651 266.117C49.352 266.103 49.3391 266.088 49.3301 266.077C49.2915 266.04 49.2607 266.003 49.2263 265.969C48.6393 265.334 48.0569 264.695 47.4792 264.051C47.475 264.048 47.475 264.048 47.4743 264.042C43.0883 259.13 39.186 253.886 36.4212 248.344C36.3381 248.177 36.2507 248.008 36.1746 247.835C34.9531 245.35 33.9864 242.77 33.2863 240.126C32.9131 238.69 32.632 237.236 32.4446 235.771C31.9714 231.99 32.2587 228.162 33.2926 224.473C35.3578 217.081 40.4101 210.291 48.3881 206.223C48.5922 206.119 48.7932 206.018 49.0015 205.917Z" fill="white"/>
<path d="M49.1973 206.101C43.4124 214.299 40.9251 224.002 42.4246 233.314C42.6959 235.364 43.368 237.354 44.4095 239.192C45.5688 241.038 47.259 242.566 49.3011 243.615C51.2367 244.676 53.3731 245.585 54.9465 246.998C55.7203 247.685 56.3032 248.529 56.6473 249.459C56.9914 250.389 57.0871 251.38 56.9264 252.35C56.584 254.729 55.1734 256.87 53.7013 258.926C52.0669 261.208 50.3232 263.559 50.1209 266.235C50.0964 266.559 49.4571 266.51 49.4816 266.187C49.8335 261.53 54.5178 258.087 55.9574 253.694C56.6291 251.643 56.5182 249.422 54.832 247.684C53.3574 246.165 51.1554 245.225 49.1837 244.164C47.1681 243.158 45.4556 241.721 44.1956 239.979C43.0401 238.195 42.2712 236.228 41.9302 234.184C41.0926 229.654 41.1688 225.025 42.1551 220.519C43.277 215.286 45.4901 210.292 48.6764 205.806C48.8762 205.523 49.3959 205.82 49.1973 206.101V206.101Z" fill="white"/>
<path d="M41.7338 230.308C37.533 230.273 33.9486 227.798 33.348 224.538C33.2889 224.217 33.9216 224.129 33.9809 224.451C34.5435 227.505 37.8685 229.773 41.7954 229.806C42.2086 229.809 42.1447 230.311 41.7338 230.308Z" fill="white"/>
<path d="M48.2296 243.178C49.6826 242.132 50.8851 240.829 51.7643 239.35C52.6434 237.87 53.1808 236.245 53.3438 234.572C53.3698 234.248 54.0091 234.296 53.9831 234.62C53.8092 236.361 53.2457 238.052 52.3269 239.59C51.4081 241.128 50.1531 242.481 48.6381 243.567C48.3375 243.791 47.9306 243.401 48.2296 243.178Z" fill="white"/>
<path d="M43.9602 215.721C44.7365 215.864 45.538 215.85 46.3076 215.68C47.0772 215.51 47.796 215.189 48.4127 214.74C48.7095 214.513 49.1161 214.904 48.8212 215.129C48.1375 215.623 47.3431 215.977 46.4931 216.166C45.6431 216.355 44.7578 216.375 43.8986 216.223C43.7281 216.193 43.5936 216.096 43.6097 215.948C43.6251 215.877 43.6699 215.814 43.7351 215.772C43.8002 215.73 43.8808 215.712 43.9602 215.721V215.721Z" fill="white"/>
<path d="M72.2555 97.9652C64.9932 97.9652 59.1059 92.6435 59.1059 86.0788C59.1059 79.5142 64.9932 74.1925 72.2555 74.1925C79.5178 74.1925 85.405 79.5142 85.405 86.0788C85.405 92.6435 79.5178 97.9652 72.2555 97.9652Z" fill="#9E616A"/>
<path d="M14.6348 140.993C16.4829 137.115 19.0207 133.536 22.1476 130.399C19.4998 134.213 17.9866 138.581 17.7545 143.08C18.7131 143.621 19.7161 144.095 20.7548 144.499C23.8762 145.682 27.2044 146.358 30.5858 146.495C32.4084 141.006 35.5541 135.951 39.7968 131.692C36.7392 136.1 35.2017 141.23 35.3798 146.43C39.1514 146.135 42.8675 145.416 46.4415 144.287C51.8078 142.619 57.0166 140.126 60.7277 136.25C64.7441 132.055 66.7237 126.518 67.3629 120.999C68.0021 115.484 67.401 109.918 66.7952 104.399C66.509 101.768 68.9322 98.7416 68.646 96.1114H68.4552C67.1816 94.5333 65.8841 92.9163 65.2593 91.045C64.6392 89.178 64.8014 86.9746 66.2276 85.5043C67.0267 84.7361 68.0351 84.1711 69.1517 83.8658C69.2566 83.7451 69.3711 83.6287 69.4903 83.5123C71.6502 81.4385 74.1922 79.7198 77.0031 78.433C74.9759 79.817 73.6212 81.3822 72.9915 82.9992C74.7469 82.6499 76.5023 82.3021 78.2577 81.9557C78.8443 81.3932 79.462 80.8578 80.1084 80.3517C80.8569 79.8035 81.6493 79.3063 82.4792 78.8641C81.5742 79.5838 80.8725 80.4885 80.4328 81.503C82.689 80.9899 84.9453 80.218 86.1187 78.4631C88.0649 75.5613 85.7514 71.6462 82.5221 69.9128C80.173 68.7133 77.4662 68.2115 74.7845 68.4785C72.1027 68.7454 69.5816 69.7675 67.5775 71.4004C62.9077 68.2916 56.2582 68.3433 51.0636 70.6674C47.6343 72.2703 44.6801 74.5932 42.449 77.4412C43.7432 77.2911 45.046 77.209 46.3508 77.1955C44.5141 77.4384 42.7651 78.0643 41.2422 79.0237C40.5684 79.9693 39.9506 80.9466 39.3914 81.9514C39.0241 82.6111 38.6775 83.2794 38.3515 83.9564C36.3529 88.0698 35.0506 92.4506 33.7007 96.7797C32.1266 101.825 30.438 106.904 27.4901 111.418C22.9703 118.283 15.8403 123.425 7.43211 125.884C6.73088 131.589 9.81229 137.168 14.6348 140.993Z" fill="#2F2E41"/>
<path d="M45.1495 269.779L49.9225 271.788L60.7649 256.101L53.7199 253.137L45.1495 269.779Z" fill="#9E616A"/>
<path d="M38.7802 276.195L42.2032 277.635L44.3187 274.971L44.3791 278.551L53.4577 282.371C53.8928 282.554 54.3814 282.607 54.852 282.521C55.3226 282.436 55.7505 282.216 56.0734 281.895C56.3964 281.574 56.5973 281.168 56.6469 280.737C56.6965 280.305 56.5922 279.87 56.3492 279.496L51.4302 271.919L52.9511 268.966L45.1136 266.168L38.7802 276.195Z" fill="#2F2E41"/>
<path d="M93.0666 274.315H98.3317L100.837 255.958H93.0666V274.315Z" fill="#9E616A"/>
<path d="M90.2878 282.561H94.0636L94.7375 279.339L96.4636 282.561H106.478C106.958 282.561 107.425 282.422 107.812 282.165C108.199 281.908 108.484 281.546 108.627 281.132C108.77 280.717 108.762 280.273 108.606 279.863C108.449 279.452 108.152 279.098 107.757 278.852L99.7599 273.859V270.602L91.3484 271.055L90.2878 282.561Z" fill="#2F2E41"/>
<path d="M68.7481 135.22L73.1103 147.251L74.5523 157.004L97.7241 150.537L95.5809 128.775L90.7613 124.465L68.7481 135.22Z" fill="#9E616A"/>
<path d="M290.585 22.7119C289.293 20.9559 290.057 18.4423 292.294 17.0975C294.53 15.7528 297.39 16.0862 298.682 17.8421C299.975 19.5981 299.21 22.1117 296.974 23.4565C294.738 24.8012 291.877 24.4679 290.585 22.7119Z" fill="#FD6584"/>
<path d="M243.585 169.019C242.292 167.263 243.057 164.749 245.293 163.404C247.53 162.06 250.39 162.393 251.682 164.149C252.975 165.905 252.21 168.418 249.974 169.763C247.738 171.108 244.877 170.775 243.585 169.019Z" fill="white"/>
<path d="M375.238 43.5449C373.946 41.7889 374.711 39.2753 376.947 37.9306C379.183 36.5858 382.043 36.9192 383.335 38.6751C384.628 40.4311 383.863 42.9447 381.627 44.2895C379.391 45.6342 376.53 45.3009 375.238 43.5449Z" fill="white"/>
<path d="M209.304 147.638H368.263C373.496 147.632 378.513 145.751 382.213 142.406C385.913 139.061 387.994 134.526 388 129.796V68.032C387.994 63.3018 385.913 58.7669 382.213 55.4221C378.513 52.0774 373.496 50.1959 368.263 50.1906C317.54 37.4881 264.342 38.6781 209.304 50.1906C204.071 50.1959 199.054 52.0774 195.354 55.4221C191.654 58.7669 189.572 63.3018 189.567 68.032V129.796C189.572 134.526 191.654 139.061 195.354 142.406C199.054 145.751 204.071 147.632 209.304 147.638Z" fill="white"/>
<path d="M371.067 131.899C371.129 131.899 371.191 131.888 371.249 131.867C371.307 131.845 371.36 131.813 371.404 131.773C371.448 131.733 371.483 131.686 371.507 131.633C371.531 131.581 371.544 131.525 371.544 131.468V66.3599C371.544 66.2455 371.493 66.1359 371.404 66.055C371.315 65.9741 371.193 65.9287 371.067 65.9287C370.94 65.9287 370.819 65.9741 370.729 66.055C370.64 66.1359 370.59 66.2455 370.59 66.3599V131.468C370.59 131.525 370.602 131.581 370.626 131.633C370.65 131.686 370.685 131.733 370.729 131.773C370.774 131.813 370.826 131.845 370.884 131.867C370.942 131.888 371.004 131.899 371.067 131.899Z" fill="white"/>
<path d="M205.546 131.899C205.483 131.899 205.421 131.888 205.363 131.867C205.306 131.845 205.253 131.813 205.209 131.773C205.164 131.733 205.129 131.686 205.105 131.633C205.081 131.581 205.069 131.525 205.069 131.468V66.3599C205.069 66.2455 205.119 66.1359 205.209 66.055C205.298 65.9741 205.419 65.9287 205.546 65.9287C205.672 65.9287 205.794 65.9741 205.883 66.055C205.973 66.1359 206.023 66.2455 206.023 66.3599V131.468C206.023 131.525 206.011 131.581 205.987 131.633C205.963 131.686 205.928 131.733 205.883 131.773C205.839 131.813 205.786 131.845 205.729 131.867C205.671 131.888 205.609 131.899 205.546 131.899Z" fill="white"/>
<path d="M237.028 80.1578H237.03C237.157 80.1574 237.278 80.1116 237.367 80.0304C237.456 79.9493 237.506 79.8395 237.505 79.7251L237.267 13.7544C237.266 13.6403 237.216 13.531 237.127 13.4505C237.037 13.37 236.916 13.3247 236.79 13.3247H236.788C236.662 13.3251 236.541 13.3709 236.451 13.452C236.362 13.5332 236.312 13.643 236.313 13.7574L236.551 79.7281C236.552 79.8422 236.602 79.9514 236.692 80.032C236.781 80.1125 236.902 80.1577 237.028 80.1578Z" fill="#2F2E41"/>
<path d="M298.085 174.586H298.087C298.213 174.586 298.334 174.54 298.423 174.459C298.513 174.378 298.562 174.268 298.562 174.154L298.324 109.908C298.323 109.794 298.273 109.684 298.183 109.604C298.094 109.523 297.973 109.478 297.846 109.478H297.845C297.718 109.478 297.597 109.524 297.508 109.605C297.419 109.686 297.369 109.796 297.369 109.911L297.608 174.156C297.608 174.271 297.659 174.38 297.748 174.461C297.838 174.541 297.959 174.586 298.085 174.586Z" fill="#2F2E41"/>
<path d="M343.4 92.2308H343.402C343.529 92.2304 343.65 92.1846 343.739 92.1035C343.828 92.0224 343.878 91.9125 343.877 91.7982L343.639 26.6898C343.638 26.5757 343.588 26.4665 343.499 26.3859C343.409 26.3054 343.288 26.2602 343.162 26.2601H343.16C343.034 26.2605 342.913 26.3063 342.823 26.3875C342.734 26.4686 342.685 26.5784 342.685 26.6928L342.923 91.8011C342.924 91.9152 342.974 92.0245 343.064 92.105C343.153 92.1856 343.274 92.2308 343.4 92.2308Z" fill="#2F2E41"/>
<path d="M363.096 109.564C362.178 105.081 356.539 103.014 351.97 103.365C345.441 103.866 339.992 107.752 333.915 109.584C330.978 110.469 327.819 110.955 324.741 110.446C322.315 109.994 320.066 108.968 318.223 107.471C314.69 104.742 312.301 101.019 308.765 98.292C306.874 96.7529 304.483 95.809 301.948 95.6015C298.828 95.4141 295.773 96.3698 293.038 97.6509C287.605 100.196 283.158 104.245 277.372 106.209C274.715 107.135 271.833 107.404 269.022 106.989C266.218 106.484 263.551 105.483 261.174 104.045C256.192 101.2 252.086 97.2515 246.848 94.7562C244.272 93.5292 241.41 92.5907 238.467 92.5722C235.623 92.5755 232.889 93.5649 230.829 95.3366C226.861 98.5966 223.733 103.743 217.673 103.833C216.41 103.854 215.166 103.546 214.091 102.945C213.309 102.507 214.027 101.388 214.814 101.828C217.284 103.208 220.258 102.337 222.509 100.998C224.907 99.5719 226.609 97.3923 228.566 95.5353C230.509 93.6903 232.777 92.1366 235.574 91.561C238.367 91.062 241.26 91.2805 243.923 92.1917C249.647 93.9944 253.98 97.7052 258.731 100.934C263.413 104.115 268.879 106.868 274.92 105.543C280.934 104.224 285.497 100.107 290.699 97.343C295.728 94.6715 301.892 92.9656 307.307 95.7765C311.399 97.9005 313.986 101.652 317.128 104.707C318.679 106.215 320.408 107.617 322.503 108.473C325.413 109.663 328.703 109.525 331.734 108.819C338.058 107.348 343.392 103.498 349.832 102.347C354.612 101.492 360.269 102.569 363.187 106.389C363.832 107.24 364.271 108.205 364.476 109.22C364.643 110.034 363.264 110.383 363.096 109.564L363.096 109.564Z" fill="#2F2E41"/>
<path d="M343.162 112.389C339.737 112.389 336.961 109.879 336.961 106.783C336.961 103.687 339.737 101.178 343.162 101.178C346.586 101.178 349.363 103.687 349.363 106.783C349.363 109.879 346.586 112.389 343.162 112.389Z" fill="#6C63FF"/>
<path d="M298.562 100.531C295.137 100.531 292.361 98.0214 292.361 94.9257C292.361 91.8299 295.137 89.3203 298.562 89.3203C301.987 89.3203 304.763 91.8299 304.763 94.9257C304.763 98.0214 301.987 100.531 298.562 100.531Z" fill="#6C63FF"/>
<path d="M237.505 96.6504C234.081 96.6504 231.304 94.1408 231.304 91.0451C231.304 87.9493 234.081 85.4397 237.505 85.4397C240.93 85.4397 243.707 87.9493 243.707 91.0451C243.707 94.1408 240.93 96.6504 237.505 96.6504Z" fill="#6C63FF"/>
<path d="M290.698 191.007H304.3C305.048 191.007 305.77 190.762 306.335 190.319C306.9 189.875 307.269 189.262 307.374 188.593C308.214 183.006 308.214 177.343 307.374 171.756C307.27 171.096 306.91 170.491 306.358 170.048C305.806 169.606 305.098 169.356 304.361 169.342C299.932 167.192 295.316 167.191 290.639 169.342C290.193 169.349 289.754 169.443 289.352 169.619C288.951 169.795 288.596 170.048 288.314 170.36C288.018 170.687 287.807 171.069 287.694 171.478C287.582 171.888 287.572 172.314 287.666 172.728C288.758 177.643 288.758 182.706 287.666 187.621C287.572 188.034 287.582 188.461 287.694 188.871C287.807 189.28 288.018 189.662 288.314 189.988C288.603 190.307 288.966 190.564 289.379 190.741C289.791 190.917 290.242 191.008 290.698 191.007Z" fill="#6C63FF"/>
<path d="M228.21 22.9654H241.812C242.56 22.9649 243.283 22.7204 243.848 22.2769C244.412 21.8333 244.781 21.2205 244.886 20.5509C245.726 14.9645 245.726 9.30095 244.886 3.71446C244.782 3.05295 244.421 2.44654 243.867 2.00411C243.313 1.56168 242.603 1.31219 241.864 1.30044C237.585 -0.433551 232.976 -0.433339 228.164 1.30023C227.715 1.3056 227.274 1.39959 226.87 1.57559C226.466 1.75159 226.11 2.00534 225.827 2.31902C225.531 2.64534 225.319 3.02713 225.207 3.43665C225.095 3.84617 225.085 4.27314 225.178 4.68652C226.271 9.60152 226.271 14.6639 225.178 19.5789C225.085 19.9923 225.095 20.4192 225.207 20.8288C225.319 21.2383 225.531 21.6201 225.827 21.9464C226.115 22.2656 226.479 22.5227 226.891 22.699C227.304 22.8752 227.754 22.9662 228.21 22.9654Z" fill="#6C63FF"/>
<path d="M336.622 34.1628H350.224C350.68 34.1637 351.131 34.0726 351.543 33.8964C351.955 33.7201 352.319 33.463 352.608 33.1438C352.904 32.8175 353.115 32.4357 353.227 32.0262C353.34 31.6167 353.349 31.1897 353.256 30.7763C352.164 25.8613 352.164 20.7989 353.256 15.8839C353.349 15.4705 353.34 15.0435 353.228 14.634C353.115 14.2244 352.904 13.8426 352.608 13.5162C352.325 13.2037 351.971 12.9507 351.569 12.7748C351.167 12.5989 350.727 12.5044 350.281 12.4978C346.145 10.6672 341.535 10.6672 336.575 12.4978C335.835 12.5085 335.124 12.7576 334.569 13.2001C334.014 13.6427 333.652 14.2497 333.548 14.9119C332.709 20.4983 332.709 26.1617 333.548 31.7481C333.653 32.4177 334.022 33.0306 334.587 33.4742C335.151 33.9178 335.874 34.1623 336.622 34.1628Z" fill="#CFCFDE"/>
<path d="M229.635 7.71932H241.083Cnan nan nan nan 241.083 7.71932L229.635 6.42578V7.71932Cnan nan nan nan 229.635 7.71932Z" fill="white"/>
<path d="M229.635 12.8935H241.083Cnan nan nan nan 241.083 12.8935L229.635 11.6V12.8935Cnan nan nan nan 229.635 12.8935Z" fill="white"/>
<path d="M229.635 18.0676H241.083Cnan nan nan nan 241.083 18.0676L229.635 16.774V18.0676Cnan nan nan nan 229.635 18.0676Z" fill="white"/>
<path d="M336.414 18.0676H347.862Cnan nan nan nan 347.862 18.0676L336.414 16.774V18.0676Cnan nan nan nan 336.414 18.0676Z" fill="white"/>
<path d="M336.414 23.2418H347.862Cnan nan nan nan 347.862 23.2418L336.414 21.9482V23.2418Cnan nan nan nan 336.414 23.2418Z" fill="white"/>
<path d="M336.414 28.416H347.862Cnan nan nan nan 347.862 28.416L336.414 27.1224V28.416Cnan nan nan nan 336.414 28.416Z" fill="white"/>
<path d="M291.576 174.586H303.024Cnan nan nan nan 303.024 174.586L291.576 173.293V174.586Cnan nan nan nan 291.576 174.586Z" fill="white"/>
<path d="M291.576 179.761H303.024Cnan nan nan nan 303.024 179.761L291.576 178.467V179.761Cnan nan nan nan 291.576 179.761Z" fill="white"/>
<path d="M291.576 184.935H303.024Cnan nan nan nan 303.024 184.935L291.576 183.641V184.935Cnan nan nan nan 291.576 184.935Z" fill="white"/>
<path d="M66.4892 155.058L98.3439 148.545L110.145 173.293L113.484 223.741L104.784 264.703H87.3506L95.3582 223.741L93.4502 192.696L84.5111 229.978L60.8247 260.91L49.896 252.377L68.646 223.31C68.646 223.31 60.7962 171.127 69.1231 162.082L66.4892 155.058Z" fill="#2F2E41"/>
<path d="M85.4975 105.914L82.9454 105.048L79.7272 100.344L68.2638 101.191L65.4775 106.234L58.7653 110.868L61.7006 124.842L66.2611 141.817L96.7893 138.367L96.7571 125.589C96.7571 125.589 102.274 115.493 93.3625 111.711L85.4975 105.914Z" fill="white"/>
<path d="M132.554 150.238C131.961 150.453 131.323 150.548 130.686 150.516C130.048 150.484 129.426 150.327 128.863 150.054C128.3 149.781 127.81 149.4 127.428 148.938C127.046 148.476 126.78 147.943 126.65 147.378L92.611 128.76L98.8327 122.271L130.335 142.613C131.4 142.478 132.483 142.701 133.378 143.24C134.273 143.778 134.918 144.595 135.191 145.535C135.465 146.475 135.347 147.473 134.861 148.339C134.375 149.206 133.554 149.882 132.554 150.238V150.238Z" fill="#9E616A"/>
<path d="M81.2688 119.931C81.2688 119.931 79.642 121.411 83.7237 123.844C86.9915 125.791 101.567 135.416 106.734 136.938C106.669 137.624 106.859 138.31 107.273 138.888C107.687 139.466 108.302 139.903 109.021 140.13L113.699 130.837C112.687 128.712 111.067 129.204 110.215 129.686L104.565 125.845L90.6904 113.322L82.4236 118.843L81.2688 119.931Z" fill="white"/>
<path d="M133.435 151.745H147.037C147.493 151.745 147.943 151.654 148.356 151.478C148.768 151.302 149.132 151.045 149.421 150.726C149.716 150.399 149.928 150.017 150.04 149.608C150.152 149.198 150.162 148.771 150.069 148.358C148.976 143.443 148.976 138.381 150.069 133.466C150.162 133.052 150.152 132.625 150.04 132.216C149.928 131.806 149.716 131.424 149.421 131.098C149.138 130.785 148.783 130.532 148.381 130.357C147.979 130.181 147.54 130.086 147.093 130.08C142.958 128.249 138.347 128.249 133.387 130.08C132.648 130.09 131.936 130.339 131.382 130.782C130.827 131.224 130.465 131.831 130.361 132.494C129.521 138.08 129.521 143.744 130.361 149.33C130.466 150 130.835 150.612 131.399 151.056C131.964 151.5 132.687 151.744 133.435 151.745Z" fill="#6C63FF"/>
<path d="M133.227 135.649H144.675Cnan nan nan nan 144.675 135.649L133.227 134.356V135.649Cnan nan nan nan 133.227 135.649Z" fill="white"/>
<path d="M133.227 140.824H144.675Cnan nan nan nan 144.675 140.824L133.227 139.53V140.824Cnan nan nan nan 133.227 140.824Z" fill="white"/>
<path d="M133.227 145.998H144.675Cnan nan nan nan 144.675 145.998L133.227 144.704V145.998Cnan nan nan nan 133.227 145.998Z" fill="white"/>
<path d="M67.6087 188.826H81.2103C81.6664 188.827 82.1171 188.736 82.5294 188.56C82.9418 188.383 83.3055 188.126 83.5942 187.807C83.89 187.481 84.1017 187.099 84.2138 186.69C84.326 186.28 84.3358 185.853 84.2426 185.44C83.15 180.525 83.15 175.462 84.2426 170.547C84.3358 170.134 84.326 169.707 84.2138 169.297C84.1017 168.888 83.89 168.506 83.5942 168.18C83.3115 167.867 82.9569 167.614 82.5549 167.438C82.153 167.262 81.7134 167.168 81.2669 167.161C77.1318 165.331 72.5211 165.331 67.561 167.161C66.8212 167.172 66.1099 167.421 65.5551 167.863C65.0003 168.306 64.6385 168.913 64.5348 169.575C63.6949 175.162 63.6949 180.825 64.5348 186.412C64.6397 187.081 65.0083 187.694 65.573 188.138C66.1378 188.581 66.8606 188.826 67.6087 188.826Z" fill="#CFCFDE"/>
<path d="M67.4005 172.731H78.8486Cnan nan nan nan 78.8486 172.731L67.4005 171.438V172.731Cnan nan nan nan 67.4005 172.731Z" fill="white"/>
<path d="M67.4005 177.905H78.8486Cnan nan nan nan 78.8486 177.905L67.4005 176.612V177.905Cnan nan nan nan 67.4005 177.905Z" fill="white"/>
<path d="M67.4005 183.079H78.8486Cnan nan nan nan 78.8486 183.079L67.4005 181.786V183.079Cnan nan nan nan 67.4005 183.079Z" fill="white"/>
<path d="M73.6472 170.312C73.052 170.103 72.5148 169.778 72.0734 169.361C71.632 168.944 71.2971 168.444 71.0924 167.897C70.8877 167.351 70.8181 166.77 70.8885 166.196C70.959 165.623 71.1677 165.07 71.5001 164.577L60.7315 129.956L70.1796 129.063L77.7938 163.375C78.6729 163.935 79.2943 164.767 79.5404 165.713C79.7865 166.659 79.6401 167.653 79.129 168.508C78.6178 169.364 77.7775 170.019 76.7671 170.352C75.7568 170.684 74.6467 170.67 73.6472 170.312Z" fill="#9E616A"/>
<path d="M59.1387 110.951C59.1387 110.951 56.8326 111.026 57.9725 115.324C58.8851 118.764 62.2365 140.348 64.8569 144.651C64.291 145.112 63.9107 145.73 63.776 146.407C63.6414 147.085 63.7599 147.784 64.1131 148.394L74.5546 144.501C75.4218 142.325 74.7503 140.349 73.764 140.174L72.5441 133.879L70.7463 112.763L60.8046 110.87L59.1387 110.951Z" fill="white"/>
<path d="M67.6606 71.7238C66.0802 73.832 65.0592 76.2414 64.6771 78.7646C64.2949 81.2878 64.562 83.8567 65.4576 86.2713" fill="#FD6584"/>
<path d="M11.9668 282.487C11.9666 282.554 11.9811 282.621 12.0096 282.683C12.038 282.746 12.0798 282.802 12.1326 282.85C12.1853 282.898 12.248 282.936 12.317 282.961C12.3859 282.987 12.4599 283 12.5345 283H146.234C146.308 283 146.382 282.987 146.451 282.961C146.52 282.935 146.583 282.897 146.635 282.85C146.688 282.802 146.73 282.745 146.758 282.683C146.787 282.621 146.802 282.554 146.802 282.487C146.802 282.419 146.787 282.353 146.758 282.291C146.73 282.228 146.688 282.172 146.635 282.124C146.583 282.076 146.52 282.039 146.451 282.013C146.382 281.987 146.308 281.974 146.234 281.974H12.5345C12.4599 281.974 12.386 281.987 12.317 282.012C12.248 282.038 12.1853 282.076 12.1326 282.124C12.0798 282.171 12.038 282.228 12.0096 282.29C11.9811 282.353 11.9666 282.419 11.9668 282.487Z" fill="#CFCFDE"/>
</g>
<defs>
<clipPath id="clip0_172_5686">
<rect width="388" height="283" fill="white" transform="matrix(-1 0 0 1 388 0)"/>
</clipPath>
</defs>
</svg>
