<svg width="388" height="339" fill="none" xmlns="http://www.w3.org/2000/svg"><g clip-path="url(#a)"><path d="M262.842 325.038a1.799 1.799 0 0 0 1.743-1.108 1.812 1.812 0 0 0-.438-2.023l-.124-.492.049-.118a4.845 4.845 0 0 1 1.79-2.157 4.816 4.816 0 0 1 5.356.02 4.841 4.841 0 0 1 1.774 2.17c1.458 3.524 3.316 7.055 3.773 10.781a14.417 14.417 0 0 1-.251 4.935 57.691 57.691 0 0 0 5.217-23.893 55.74 55.74 0 0 0-.343-6.194 57.868 57.868 0 0 0-.79-5.022 58.265 58.265 0 0 0-11.505-24.664 15.47 15.47 0 0 1-6.421-6.682 11.86 11.86 0 0 1-1.071-3.229c.313.041.63.067.943.088l.297.015.037.002a1.787 1.787 0 0 0 1.465-2.916l-.405-.499c-.205-.257-.415-.509-.62-.766a.821.821 0 0 1-.067-.077l-.707-.874a5.166 5.166 0 0 1 1.691-1.64c2.363-1.388 5.622-.426 7.328 1.717 1.712 2.144 2.035 5.151 1.441 7.829a20.785 20.785 0 0 1-2.86 6.395c.128.164.261.324.389.488a58.565 58.565 0 0 1 6.095 9.685 24.412 24.412 0 0 1 1.449-11.309c1.387-3.357 3.987-6.184 6.276-9.085 2.751-3.486 8.39-1.964 8.874 2.454l.014.128c-.34.192-.673.397-.999.613a2.448 2.448 0 0 0-1.027 2.567 2.444 2.444 0 0 0 2.012 1.891l.05.008a24.34 24.34 0 0 1-.641 3.644 25.133 25.133 0 0 1-4.591 9.17 25.037 25.037 0 0 1-7.867 6.56c-.2.103-.395.206-.594.303a59.976 59.976 0 0 1 3.208 15.144 56.993 56.993 0 0 1-.041 9.155l.015-.108a14.99 14.99 0 0 1 5.099-8.651c3.924-3.234 9.468-4.424 13.702-7.023a2.79 2.79 0 0 1 3.017-.008 2.814 2.814 0 0 1 1.276 2.743l-.017.114a16.31 16.31 0 0 0-2.839 1.502 2.448 2.448 0 0 0-1.027 2.567 2.444 2.444 0 0 0 2.012 1.891l.05.008.102.015a24.371 24.371 0 0 1-4.474 7.027 25.028 25.028 0 0 1-8.258 5.877 24.957 24.957 0 0 1-9.904 2.116h-.005a59.934 59.934 0 0 1-4.002 11.721H263.2c-.051-.16-.097-.324-.144-.484 1.324.084 2.653.004 3.957-.236-1.061-1.306-2.122-2.622-3.183-3.927a1.171 1.171 0 0 1-.066-.077c-.538-.669-1.082-1.332-1.62-2v-.001a23.948 23.948 0 0 1 .697-6.08h.001Z" fill="#fff"/><path d="M214.925 49.256c0 9.663 4.819 19.495 14.452 19.495 9.632 0 22.923-6.998 19.933-21.994-1.889-9.474-7.311-14.996-16.943-14.996v34.99c3.449 0 6.821-1.026 9.69-2.948a17.483 17.483 0 0 0 6.423-7.851 17.538 17.538 0 0 0-3.78-19.066 17.427 17.427 0 0 0-8.931-4.788 17.391 17.391 0 0 0-10.077.995 17.458 17.458 0 0 0-7.828 6.444 17.537 17.537 0 0 0-2.939 9.72Z" fill="#2F2E41"/><path d="M255.333 187.304a5.391 5.391 0 0 1-1.328-4.352 5.39 5.39 0 0 1 2.475-3.815l-4.217-18.641 9.269 3.498 2.583 17.166a5.42 5.42 0 0 1-1.67 6.985 5.383 5.383 0 0 1-7.112-.841Z" fill="#FFB6B6"/><path d="m235.659 121.231 6.469.661s-1.691 9.612.954 11.777c2.646 2.166 1.58 2.155 1.564 3.76-.015 1.605 1.026 4.289 3.144 5.915 2.117 1.625 6.521 30.569 6.521 30.569l9.599.092a30.263 30.263 0 0 1 .072-7.488c.569-3.739 3.445-13.158 2.394-14.773-1.051-1.615-.498-4.585-.467-7.794.031-3.209-4.546.337-4.495-5.012.051-5.349-5.82-38.912-5.24-43.721.579-4.81-5.246-9.145-5.246-9.145l-5.332-.05-9.937 35.209Z" fill="#6C63FF"/><path d="M166.984 76.091a5.11 5.11 0 0 0 .929 4.21 5.082 5.082 0 0 0 3.814 1.99l5.19 17.347 6.018-7.221-5.851-15.366a5.136 5.136 0 0 0-1.369-3.372 5.1 5.1 0 0 0-6.756-.642 5.12 5.12 0 0 0-1.975 3.054Z" fill="#FFB6B6"/><path d="M221.773 81.741s-12.546-4.718-19.348 21.122l-9.029 9.38-7.586-13.75 1.003-3.261-5.862-13.332-10.052 5.786 2.474 9.153-.418 4.525 2.402 2.814 3.932 14.545 2.46 4.752s3.102 6.084 8.517 7.087c1.443.271 2.92.313 4.377.124 2.851-.373 5.976-1.691 9.187-4.601 11.915-10.794 18.961-19.12 18.961-19.12l-1.018-25.224Z" fill="#6C63FF"/><path d="m161.29 87.237 22.333-21.62a.666.666 0 0 0 .04-.911.657.657 0 0 0-.905-.089l-23.68 18.506 2.212 4.114Z" fill="#2F2E41"/><path d="M152.092 89.634c1.12.394 2.283.655 3.464.776.601.06 1.204.08 1.802.088.21.007.422.008.631.01.497.008.993.015 1.495.02.423.009.85.015 1.271.019.62.01 1.301-.003 1.746-.44a1.975 1.975 0 0 0 .439-1.618 6.642 6.642 0 0 0-.536-1.726c-.536-1.293-1.077-2.585-1.612-3.878l.083-.724a8.5 8.5 0 0 0-2.958.09 3.038 3.038 0 0 0-1.896 1.457 2.5 2.5 0 0 0-.201.506c-.21.77-.059 1.626-.149 2.433a4.208 4.208 0 0 1-.093.498 3.39 3.39 0 0 1-1.793 2.254 3.11 3.11 0 0 1-1.693.235Z" fill="#CFCFDE"/><path d="M150.521 89.007a3.577 3.577 0 0 0 1.571.627 16.793 16.793 0 0 1-1.571-.627Z" fill="#fff"/><path d="M152.092 89.634c1.12.394 2.283.655 3.464.776.601.06 1.204.08 1.802.088.21.007.423.008.631.01.497.008.994.015 1.495.02a7.08 7.08 0 0 0-.113-.752c-.468-2.32-1.829-4.293-3.35-6.068a2.56 2.56 0 0 0-.201.506c-.21.77-.059 1.626-.149 2.433a4.208 4.208 0 0 1-.093.498 3.388 3.388 0 0 1-1.793 2.254 3.11 3.11 0 0 1-1.693.235Z" fill="#6C63FF"/><path d="m238.601 125.009.887 4.242.755 15.647-30.317-4.117-2.327-18.119 3.217-5.303 27.785 7.65ZM216.177 61.01c-3.801-6.975-1.245-15.72 5.708-19.532 6.953-3.813 15.671-1.25 19.472 5.725 3.801 6.974 1.245 15.719-5.708 19.531-6.953 3.813-15.671 1.25-19.472-5.725Z" fill="#FFB6B6"/><path d="m250.383 105.509 3.945-10.282a19.08 19.08 0 0 0-4.119-11.853 18.976 18.976 0 0 0-10.58-6.705l-.054-.012-2.837-3.835-11.527 1.157-2.113 4.33-8.352 4.99-9.5 11.157c-2.992 2.155-4.769 4.918-5.283 8.213-1.092 6.995 3.791 13.994 4.372 14.797l1.497 8.454 34.602 4.974.264.033 9.685-25.418Z" fill="#6C63FF"/><path d="M243.783 57.879c-.13-.02-.26-.048-.39-.069-2.238-.398-4.476-.79-6.708-1.194l-.205-5.074-2.704 4.545c-6.166 2.053-11.936.892-17.363-1.668a48.882 48.882 0 0 1-5.202-2.877c-1.168-7.146 1.778-12.778 9.342-13.497.235-.022.404-.22.609-.323a.01.01 0 0 0 .003 0c.001 0 .002 0 .002-.002.001 0 .002 0 .002-.002v-.002c.349-.165.705-.323 1.061-.467a15.76 15.76 0 0 1 8.761-.798 15.79 15.79 0 0 1 7.83 4.024c4.38 4.195 6.351 11.122 4.962 17.404Z" fill="#2F2E41"/><path d="m217.467 302.188-8.231 3.794-18.506-30.043 12.148-5.599 14.589 31.848Z" fill="#FFB6B6"/><path d="m217.642 297.174-13.369 5.219 2.562 5.592-8.445 14.272a3.858 3.858 0 0 0 .448 4.535 3.822 3.822 0 0 0 4.448.92l15.492-7.14.136-6.762 3.577 5.05 5.841-2.692-10.69-18.994Z" fill="#2F2E41"/><path d="M253.45 320.828h-9.059l-4.309-35.049h13.37l-.002 35.049Z" fill="#FFB6B6"/><path d="M258.377 248.909v-.094l-3.403-5.882 3.475-7.656.246-46.532c1.369-33.626-18.08-49.791-18.233-49.949l-.422-.44-31.19-.766s-16.394 48.273-29.417 91.769c-.77 2.571-2.947 5.106-2.27 7.651 5.371 20.187 11.744 43.035 15.835 43.68l12.957-6.998-2.408-34.986 1.48-3.807c2.653-.49 9.547-27.33 9.547-27.33 1.156-1.376 1.096-5.118 1.096-5.118l9.031-9.511 8.324 43.839-2.058 13.075 1.703 4.496 7.295 37.116.077.598 13.753-1.377 4.582-41.778ZM256.518 316.345l-14.32-.857v6.154l-13.615 9.432a3.845 3.845 0 0 0-1.481 4.307 3.831 3.831 0 0 0 3.659 2.7h17.049l2.938-6.087 1.148 6.087h6.428l-1.806-21.736ZM238.286 37.358v.012a8.712 8.712 0 0 0 .285 2.233c.03.127.066.261.109.389v.006a8.82 8.82 0 0 0 5.427 5.669c.188.072.382.133.576.188.408.119.826.204 1.249.256a8.702 8.702 0 0 0 2.043.036 8.485 8.485 0 0 0 2.044-.468c.103-.03.204-.067.303-.11a8.808 8.808 0 0 0 4.971-5.06 8.845 8.845 0 0 0-.284-6.952l-.006-.006a8.657 8.657 0 0 0-1.728-2.433c-1.589-1.588-2.289-5.566-4.702-5.566a3.27 3.27 0 0 0-.346.012c-1.619.055-4.612 3.559-5.885 4.386a8.59 8.59 0 0 0-2.413 2.293 8.72 8.72 0 0 0-1.419 3.139 8.825 8.825 0 0 0-.224 1.976Z" fill="#2F2E41"/><path d="M249.028 34.287c1.365 1.595 3.503 2.215 5.432 3.044a22.869 22.869 0 0 1 8.705 6.724 22.953 22.953 0 0 1 4.57 10.022c.533 2.984.464 6.073 1.306 8.982.837 2.91 2.91 5.763 5.885 6.268 2.013.345 4.032-.435 5.925-1.204 1.042-.42 2.083-.842 3.125-1.265a6912.813 6912.813 0 0 1-3.254-8.203 41.541 41.541 0 0 0 6.034 7.083c3.733-1.51 7.469-3.019 11.208-4.529-9.199.035-7.63-8.922-9.688-17.91-1.131-4.938-10.764-8.282-12.652-12.98a14.372 14.372 0 0 0-4.977-6.346 14.301 14.301 0 0 0-15.431-.777 14.355 14.355 0 0 0-5.585 5.813c-1.889.755-1.944 3.704-.603 5.278ZM209.956 139.793a13.568 13.568 0 0 0-5.69 3.085 13.623 13.623 0 0 0-3.622 5.376c-.409 1.183-.665 2.587.039 3.712a1.883 1.883 0 0 0 2.32.883c.919-.38 1.552-1.322 2.019-2.157a27.385 27.385 0 0 0 1.592-3.662c.722-1.899 2.261-5.068.063-6.552-1.849-1.248-4.297-.763-6.377-.849-2.248-.093-4.747-.956-5.545-3.293-.777-2.273 1.044-4.411 3.007-5.276a7.796 7.796 0 0 1 7.295.698 10.606 10.606 0 0 1 4.236 6.145.75.75 0 0 1-1.086.834.745.745 0 0 1-.355-.435c-.618-2.26-1.953-4.387-4.036-5.545-1.951-1.085-4.626-1.152-6.446.252-.9.695-1.607 1.85-1.146 2.998.423 1.053 1.525 1.679 2.573 1.933 2.372.576 4.853-.169 7.218.591 2.254.725 3.553 2.574 3.228 4.975a18.093 18.093 0 0 1-1.187 3.922 33.93 33.93 0 0 1-1.616 3.786c-.938 1.779-2.631 3.705-4.864 3.184-2.546-.595-3.15-3.576-2.605-5.769 1.244-5 5.709-9.004 10.587-10.282a.748.748 0 0 1 .831 1.089.748.748 0 0 1-.433.357ZM187.584 276.363c1.057-1.254 2.564-2.019 4.029-2.751l12.291-6.141.35 2.188c.465-1.439 2.746-1.545 3.671-.35.924 1.195.628 3.002-.274 4.214-.901 1.212-2.271 1.969-3.597 2.689l-8.822 4.789c-1.371.744-2.785 1.502-4.334 1.672-1.548.17-3.283-.39-4.055-1.747-.81-1.426-.316-3.31.741-4.563ZM235.397 287.798c1.504-.648 3.193-.657 4.83-.656l13.731.011-.661 2.114c1.057-1.079 3.145-.152 3.44 1.331.295 1.484-.774 2.968-2.12 3.648-1.347.681-2.909.745-4.416.795l-10.027.333c-1.557.052-3.16.097-4.621-.445-1.461-.542-2.764-1.82-2.85-3.38-.091-1.639 1.19-3.103 2.694-3.751Z" fill="#2F2E41"/><path d="M158.221 191.092c20.139 0 42.023-4.025 63.761-11.766 26.881-9.572 51.528-24.02 71.277-41.782l-.585-1.177c-19.653 17.677-44.191 32.059-70.961 41.591-24.192 8.615-48.565 12.606-70.476 11.553l-.038 1.414c2.314.112 4.655.168 7.022.167ZM338.639 117.373c16.136-21.366 9.737-45.752 19.19-62.764 36.232-65.2-8.383-59.194-58.824-46.514l-.12 1.406c32.104 4.97 53.217 21.543 57.927 45.47 3.66 18.596-3.057 40.399-18.912 61.393l.739 1.009Z" fill="#fff"/><path d="M182.952 193.215c20.139 0 43.284-22.416 63.761-11.766 62 32.248 53.465-21.713 71.277-41.782l-.585-1.176c-19.653 17.676-44.191 32.058-70.961 41.59-24.192 8.615-48.565 12.606-70.476 11.553l-.038 1.414c2.314.112 4.655.168 7.022.167ZM136.751 184.314l.337-1.341c-18.011-8.191-16.464-32.588-32.578-38.159-122.756-42.44-1.583-47.226 25.673-69.675 24.373-20.075 50.936-43.414 84.695-55.435l-.27-1.369c-33.905 12.074-64.13 31.863-85.104 55.723-21.081 23.98-30.318 49.237-26.012 71.118 3.397 17.254 14.897 30.788 33.259 39.138ZM302.139 193.807c21.677-35.551 50.478-67.307 85.861-86.238l-.877-.783c-15.687 31.784-46.02 62.229-85.411 85.727l.427 1.294ZM163.008 234.703c4.081 0 8.233-.122 12.454-.367l-.046-1.415c-31.133 17.768-58.907 13.543-80.38-14.666l-.394 1.314c18.395 9.969 41.84 15.134 68.366 15.134Z" fill="#fff"/><path d="M156.627 221.17c-2.325 0-4.21-2.535-4.21-5.662s1.885-5.662 4.21-5.662 4.209 2.535 4.209 5.662-1.884 5.662-4.209 5.662Z" fill="#FD6584"/><path d="M298.838 117.586c-.349-2.306 1.867-4.555 4.949-5.025 3.082-.469 5.864 1.02 6.213 3.325.349 2.306-1.867 4.555-4.949 5.025-3.083.469-5.864-1.019-6.213-3.325ZM318.217 56.15c-2.325 0-4.209-2.535-4.209-5.662s1.884-5.662 4.209-5.662c2.325 0 4.21 2.535 4.21 5.662s-1.885 5.662-4.21 5.662Z" fill="#fff"/><path d="M308.651 88.578c5.49-7.675 15.852-11.64 23.144-8.858 7.292 2.782 8.753 11.26 3.263 18.934-5.49 7.675-21.651 19.747-28.943 16.965-7.292-2.782-2.954-19.366 2.536-27.04Zm-.034 23.606c.898 1.32 3.1 1.381 4.919.137 1.819-1.245 2.566-3.324 1.668-4.644-.897-1.32-3.099-1.381-4.918-.136-1.819 1.244-2.566 3.323-1.669 4.643Z" fill="#2F2E41"/><path d="M314.849 96.085c.683.555 1.367 1.11 2.051 1.663a8.08 8.08 0 0 0 2.915 1.729 7.907 7.907 0 0 0 4.475-.267 10.712 10.712 0 0 0 5.251-3.744l-1.477.33a11.563 11.563 0 0 0 1.889-3.045c.347-1.028.153-2.071-.782-2.353-1.071-.322-2.795.402-3.694-.119-1.555-.9 1.001-4.255-.416-5.29-.825-.602-2.477-.006-3.854.586a21.687 21.687 0 0 0-4.831 2.587c-2.446 1.895-3.8 4.881-2.801 6.61.342.511.773.957 1.274 1.313Z" fill="#C5C2FF"/><path d="M315.353 101.841c1.195.164 2.579-.758 3.733-1.609l.293-.385a6.26 6.26 0 0 0 .298-2.29 1.588 1.588 0 0 0-1.347-1.452c-.701-.093-1.637.21-2.1-.196-.896-.787 1.181-2.956.232-3.693-.533-.413-1.666.117-2.154.827a3.746 3.746 0 0 0-.527 2.204l-.048 3.4c-.05.67.017 1.342.2 1.988a1.758 1.758 0 0 0 1.42 1.206Z" fill="#2F2E41"/><path d="M315.053 105.617c1.657-.491 4.184-2.204 6.337-3.717l.641-.56a11.675 11.675 0 0 0 1.692-2.523c.248-.682-.071-1.08-1.172-.75-.974.29-2.508 1.12-2.962.957-.877-.317 3.349-3.697 2.365-3.931-.552-.132-2.498 1.04-3.602 2.04a8.786 8.786 0 0 0-1.979 2.561l-1.935 3.528a5.43 5.43 0 0 0-.798 1.936c-.014.501.407.757 1.413.459Z" fill="#FD6584"/><path d="M80.463 13.865c-.65-8.256-6.097 1.486-14.328 2.138a14.914 14.914 0 0 0-5.616 1.588 14.957 14.957 0 0 0-4.582 3.624 15.01 15.01 0 0 0-3.534 10.919 15.03 15.03 0 0 0 1.585 5.632 14.987 14.987 0 0 0 3.614 4.594 14.936 14.936 0 0 0 10.887 3.541c8.231-.652 12.624-23.78 11.974-32.036ZM29.22 93.138a15.028 15.028 0 0 0-1.586-5.631 14.987 14.987 0 0 0-3.612-4.594 14.906 14.906 0 0 0-10.883-3.543C4.908 80.02-.598 63.625.052 71.881c.65 8.256 7.21 38.038 15.441 37.386a14.942 14.942 0 0 0 10.194-5.214 15.012 15.012 0 0 0 3.532-10.916Z" fill="#C5C2FF"/><path d="M10.457 111.208c2.25 1.088 4.85.447 6.793-.99 2.21-1.635 3.299-4.234 3.659-6.901a21.3 21.3 0 0 0-.7-8.533c-.769-2.67-2.415-5.44-5.356-5.99-1.96-.367-4.052.472-4.595 2.514a4.93 4.93 0 0 0 1.259 4.654c1.759 1.695 4.582 1.566 6.626.489 2.403-1.267 3.729-3.803 4.166-6.41.52-3.1-.206-6.214-1.24-9.13-1.124-3.17-2.523-6.244-3.81-9.349-2.506-6.055-4.861-12.241-5.86-18.753-1.525-9.948.85-21.754 9.545-27.844 4.694-3.288 10.58-4.219 16.18-3.511 5.905.746 11.332 3.345 16.138 6.787a68.575 68.575 0 0 1 7.105 5.956A4.889 4.889 0 0 0 65.7 35.33c4.621-1.886 3.148-9.43-1.615-9.991-2.165-.256-4.394.956-5.862 2.47a11.653 11.653 0 0 0-2.998 6.206c-.815 4.895.995 10.069 4.137 13.81 3.55 4.226 8.945 6.606 14.197 7.86 5.98 1.426 12.13 1.499 18.242 1.635 6.255.138 12.584.377 18.622 2.177a45.957 45.957 0 0 1 13.567 6.688 48.205 48.205 0 0 1 17.756 24.032 44.3 44.3 0 0 1 1.679 7.19c.141.956-1.35 1.07-1.49.119-1.572-10.635-7.312-20.414-15.381-27.414a45.561 45.561 0 0 0-13.613-8.192c-5.999-2.283-12.371-2.862-18.738-3.048-6.502-.19-13.064-.087-19.47-1.393-5.662-1.154-11.396-3.419-15.522-7.612-3.638-3.698-5.889-8.988-5.647-14.216.224-4.864 2.895-10.066 7.844-11.512 2.321-.678 4.814-.246 6.538 1.532a7.572 7.572 0 0 1 1.632 7.744 6.265 6.265 0 0 1-3.156 3.222 6.238 6.238 0 0 1-4.495.261 7.611 7.611 0 0 1-2.868-1.88c-4.672-4.389-9.901-8.416-15.985-10.601-5.675-2.039-12.202-2.457-17.849-.106-10.69 4.45-13.901 17.366-12.407 27.886.978 6.886 3.576 13.405 6.235 19.783 1.357 3.256 2.866 6.492 3.905 9.87.93 3.024 1.397 6.269.634 9.385-.666 2.719-2.242 5.218-4.764 6.535-2.29 1.197-5.196 1.404-7.44-.02-3.245-2.057-3.974-7.738-.33-9.808 2.417-1.373 5.513-.698 7.519 1.106 2.248 2.022 3.166 5.05 3.63 7.95.875 5.476.187 12.221-5.206 15.151-2.222 1.207-4.871 1.533-7.194.41a.752.752 0 0 1 .09-1.369.75.75 0 0 1 .56.018Z" fill="#2F2E41"/><path d="M143.728 93.59c-.689-8.755 11.254-32.164 6.116-38.501a38.121 38.121 0 0 0-2.006-2.298 41.164 41.164 0 0 0-7.59-6.373 36.381 36.381 0 0 0-1.42-.9 41.963 41.963 0 0 0-5.285-2.676c-.33-.134-.666-.268-1.001-.402a41.495 41.495 0 0 0-28.648-.51 41.64 41.64 0 0 0-22.186 18.188 41.85 41.85 0 0 0-5.206 28.262 41.772 41.772 0 0 0 14.243 24.938c.396.34.802.668 1.218.991a41.4 41.4 0 0 0 13.832 7.123c.005-.001.006.004.011.004a41.655 41.655 0 0 0 23.057.103l.01-.001c.167-.048.333-.096.498-.149 18.45-5.469 15.933-7.791 14.357-27.798Z" fill="#C5C2FF"/><path d="M133.563 43.031a.801.801 0 0 0-.02-.189c-.33-.134-.666-.268-1.001-.402a.749.749 0 0 0-.469.71 10.278 10.278 0 0 1-.258 2.251c-1.444 6.412-7.988 10.15-13.831 11.751-7.148 1.966-14.829 1.993-21.498 5.544a18.897 18.897 0 0 0-6.888 5.911 13.49 13.49 0 0 0-2.186 9.375c1.02 7.736 6.958 13.383 9.403 20.565 1.008 2.958 1.256 6.108.11 9.067-.973 2.513-2.892 4.806-5.65 5.326a.717.717 0 0 0-.53.378c.397.339.802.668 1.218.991a7.248 7.248 0 0 0 1.445-.5c2.64-1.262 4.346-3.779 5.2-6.519.985-3.172.61-6.472-.493-9.559-2.571-7.197-8.926-13.116-9.322-21.062-.342-6.888 5.302-11.647 11.19-13.939 7.285-2.833 15.451-2.412 22.629-5.594 5.646-2.503 10.925-7.519 10.951-14.105Z" fill="#2F2E41"/><path d="M140.248 46.418a36.263 36.263 0 0 0-1.42-.9.62.62 0 0 0-.126.501 25.435 25.435 0 0 1-4.808 18.096 25.038 25.038 0 0 1-6.017 5.862c-2.429 1.661-5.159 2.665-7.855 3.791-2.652 1.108-5.334 2.408-7.255 4.611-1.957 2.246-2.779 5.144-2.867 8.08-.207 6.956 3.734 13.021 4.548 19.791.362 3.02-.071 6.018-1.752 8.603-1.454 2.231-3.731 3.855-6.463 3.751-.903-.039-.844 1.28-.049 1.473.054.013.11.021.166.022 3.179.119 5.899-1.841 7.58-4.421 1.959-2.999 2.443-6.502 1.947-10.007-.965-6.783-5.057-13.053-4.44-20.071a10.55 10.55 0 0 1 3.914-7.611c2.364-1.847 5.251-2.823 7.991-3.963a27.674 27.674 0 0 0 7.55-4.479 27.41 27.41 0 0 0 5.604-6.666 26.641 26.641 0 0 0 3.752-16.463ZM149.844 55.089a38.398 38.398 0 0 0-2.005-2.298 28.455 28.455 0 0 1 .485 11.684 29.49 29.49 0 0 1-5.812 13.413 25.76 25.76 0 0 1-5.317 5.1c-2.296 1.635-4.833 3.065-6.353 5.532-3.297 5.355-.283 11.765 1.338 17.112.849 2.791 1.425 5.789.485 8.631-.732 2.204-2.353 4.343-4.748 4.779-.941.17-.828 1.67.118 1.495a9.84 9.84 0 0 0 .53-.117c2.601-.688 4.477-2.822 5.389-5.341 1.18-3.288.627-6.694-.365-9.96-1.633-5.37-4.99-12.39-.359-17.25 1.953-2.05 4.599-3.308 6.732-5.156a27.839 27.839 0 0 0 4.994-5.656 31.363 31.363 0 0 0 4.888-21.968ZM121.282 162.126v-.963h16.093V138.7h.957v22.463h18.444v-17.347c.322.254.64.516.955.785v16.562h12.181c.136.318.266.639.389.963h-12.57v18.875h15.608a25.65 25.65 0 0 1-.064.963h-15.544v15.058h11.645a22.58 22.58 0 0 1-.451.958h-11.194v12.658h-.955V197.98h-18.444v12.658h-.957V197.98h-16.093v-.958h16.093a15.08 15.08 0 0 0-4.396-10.649 14.972 14.972 0 0 0-10.617-4.409h-1.08v-.963h16.093v-18.875h-16.093Zm17.05 34.896h18.444v-15.058h-18.444v15.058Zm0-16.021h18.444v-.378a18.563 18.563 0 0 0-1.405-7.079 18.503 18.503 0 0 0-3.998-6.001 18.44 18.44 0 0 0-5.983-4.01 18.39 18.39 0 0 0-7.058-1.407v18.875Z" fill="#2F2E41"/><path d="m166.807 338.846 137.414.154" fill="#CFCFDE"/></g><defs><clipPath id="a"><path fill="#fff" transform="matrix(-1 0 0 1 388 0)" d="M0 0h388v339H0z"/></clipPath></defs></svg>
