<svg width="90" height="14" viewBox="0 0 90 14" fill="none" xmlns="http://www.w3.org/2000/svg">
<path d="M0.696289 13V0.150391H2.79688V11.1982H8.2373V13H0.696289ZM13.4775 13.1758C11.9658 13.1758 10.7822 12.7363 9.92676 11.8574C9.07715 10.9727 8.65234 9.75684 8.65234 8.20996C8.65234 6.62207 9.04785 5.37402 9.83887 4.46582C10.6299 3.55762 11.7168 3.10352 13.0996 3.10352C14.3828 3.10352 15.3965 3.49316 16.1406 4.27246C16.8848 5.05176 17.2568 6.12402 17.2568 7.48926V8.60547H10.7793C10.8086 9.54883 11.0635 10.2754 11.5439 10.7852C12.0244 11.2891 12.7012 11.541 13.5742 11.541C14.1484 11.541 14.6816 11.4883 15.1738 11.3828C15.6719 11.2715 16.2051 11.0898 16.7734 10.8379V12.5166C16.2695 12.7568 15.7598 12.9268 15.2441 13.0264C14.7285 13.126 14.1396 13.1758 13.4775 13.1758ZM13.0996 4.66797C12.4434 4.66797 11.916 4.87598 11.5176 5.29199C11.125 5.70801 10.8906 6.31445 10.8145 7.11133H15.2266C15.2148 6.30859 15.0215 5.70215 14.6465 5.29199C14.2715 4.87598 13.7559 4.66797 13.0996 4.66797ZM24.6855 13L24.2725 11.6465H24.2021C23.7334 12.2383 23.2617 12.6426 22.7871 12.8594C22.3125 13.0703 21.7031 13.1758 20.959 13.1758C20.0039 13.1758 19.2568 12.918 18.7178 12.4023C18.1846 11.8867 17.918 11.1572 17.918 10.2139C17.918 9.21191 18.29 8.45605 19.0342 7.94629C19.7783 7.43652 20.9121 7.1582 22.4355 7.11133L24.1143 7.05859V6.54004C24.1143 5.91895 23.9678 5.45605 23.6748 5.15137C23.3877 4.84082 22.9395 4.68555 22.3301 4.68555C21.832 4.68555 21.3545 4.75879 20.8975 4.90527C20.4404 5.05176 20.001 5.22461 19.5791 5.42383L18.9111 3.94727C19.4385 3.67188 20.0156 3.46387 20.6426 3.32324C21.2695 3.17676 21.8613 3.10352 22.418 3.10352C23.6543 3.10352 24.5859 3.37305 25.2129 3.91211C25.8457 4.45117 26.1621 5.29785 26.1621 6.45215V13H24.6855ZM21.6094 11.5938C22.3594 11.5938 22.96 11.3857 23.4111 10.9697C23.8682 10.5479 24.0967 9.95898 24.0967 9.20312V8.35938L22.8486 8.41211C21.876 8.44727 21.167 8.61133 20.7217 8.9043C20.2822 9.19141 20.0625 9.63379 20.0625 10.2314C20.0625 10.665 20.1914 11.002 20.4492 11.2422C20.707 11.4766 21.0938 11.5938 21.6094 11.5938ZM32.9756 3.10352C33.3916 3.10352 33.7344 3.13281 34.0039 3.19141L33.8018 5.11621C33.5088 5.0459 33.2041 5.01074 32.8877 5.01074C32.0615 5.01074 31.3906 5.28027 30.875 5.81934C30.3652 6.3584 30.1104 7.05859 30.1104 7.91992V13H28.0449V3.2793H29.6621L29.9346 4.99316H30.04C30.3623 4.41309 30.7812 3.95313 31.2969 3.61328C31.8184 3.27344 32.3779 3.10352 32.9756 3.10352ZM43.3662 13H41.292V7.02344C41.292 6.27344 41.1396 5.71387 40.835 5.34473C40.5361 4.97559 40.0586 4.79102 39.4023 4.79102C38.5293 4.79102 37.8906 5.04883 37.4863 5.56445C37.082 6.08008 36.8799 6.94434 36.8799 8.15723V13H34.8145V3.2793H36.4316L36.7217 4.55371H36.8271C37.1201 4.09082 37.5361 3.7334 38.0752 3.48145C38.6143 3.22949 39.2119 3.10352 39.8682 3.10352C42.2002 3.10352 43.3662 4.29004 43.3662 6.66309V13ZM57.1074 13H55.0332V7.00586C55.0332 6.26172 54.8926 5.70801 54.6113 5.34473C54.3301 4.97559 53.8906 4.79102 53.293 4.79102C52.4961 4.79102 51.9102 5.05176 51.5352 5.57324C51.166 6.08887 50.9814 6.9502 50.9814 8.15723V13H48.916V3.2793H50.5332L50.8232 4.55371H50.9287C51.1982 4.09082 51.5879 3.7334 52.0977 3.48145C52.6133 3.22949 53.1787 3.10352 53.7939 3.10352C55.2881 3.10352 56.2783 3.61328 56.7646 4.63281H56.9053C57.1924 4.15234 57.5967 3.77734 58.1182 3.50781C58.6396 3.23828 59.2373 3.10352 59.9111 3.10352C61.0713 3.10352 61.915 3.39648 62.4424 3.98242C62.9756 4.56836 63.2422 5.46191 63.2422 6.66309V13H61.1768V7.00586C61.1768 6.26172 61.0332 5.70801 60.7461 5.34473C60.4648 4.97559 60.0254 4.79102 59.4277 4.79102C58.625 4.79102 58.0361 5.04297 57.6611 5.54688C57.292 6.04492 57.1074 6.8125 57.1074 7.84961V13ZM73.7471 8.12207C73.7471 9.70996 73.3398 10.9492 72.5254 11.8398C71.7109 12.7305 70.5771 13.1758 69.124 13.1758C68.2158 13.1758 67.4131 12.9707 66.7158 12.5605C66.0186 12.1504 65.4824 11.5615 65.1074 10.7939C64.7324 10.0264 64.5449 9.13574 64.5449 8.12207C64.5449 6.5459 64.9492 5.31543 65.7578 4.43066C66.5664 3.5459 67.7061 3.10352 69.1768 3.10352C70.583 3.10352 71.6963 3.55762 72.5166 4.46582C73.3369 5.36816 73.7471 6.58691 73.7471 8.12207ZM66.6719 8.12207C66.6719 10.3662 67.501 11.4883 69.1592 11.4883C70.7998 11.4883 71.6201 10.3662 71.6201 8.12207C71.6201 5.90137 70.7939 4.79102 69.1416 4.79102C68.2744 4.79102 67.6445 5.07812 67.252 5.65234C66.8652 6.22656 66.6719 7.0498 66.6719 8.12207ZM80.0596 3.10352C80.4756 3.10352 80.8184 3.13281 81.0879 3.19141L80.8857 5.11621C80.5928 5.0459 80.2881 5.01074 79.9717 5.01074C79.1455 5.01074 78.4746 5.28027 77.959 5.81934C77.4492 6.3584 77.1943 7.05859 77.1943 7.91992V13H75.1289V3.2793H76.7461L77.0186 4.99316H77.124C77.4463 4.41309 77.8652 3.95313 78.3809 3.61328C78.9023 3.27344 79.4619 3.10352 80.0596 3.10352ZM86.1436 13.1758C84.6318 13.1758 83.4482 12.7363 82.5928 11.8574C81.7432 10.9727 81.3184 9.75684 81.3184 8.20996C81.3184 6.62207 81.7139 5.37402 82.5049 4.46582C83.2959 3.55762 84.3828 3.10352 85.7656 3.10352C87.0488 3.10352 88.0625 3.49316 88.8066 4.27246C89.5508 5.05176 89.9229 6.12402 89.9229 7.48926V8.60547H83.4453C83.4746 9.54883 83.7295 10.2754 84.21 10.7852C84.6904 11.2891 85.3672 11.541 86.2402 11.541C86.8145 11.541 87.3477 11.4883 87.8398 11.3828C88.3379 11.2715 88.8711 11.0898 89.4395 10.8379V12.5166C88.9355 12.7568 88.4258 12.9268 87.9102 13.0264C87.3945 13.126 86.8057 13.1758 86.1436 13.1758ZM85.7656 4.66797C85.1094 4.66797 84.582 4.87598 84.1836 5.29199C83.791 5.70801 83.5566 6.31445 83.4805 7.11133H87.8926C87.8809 6.30859 87.6875 5.70215 87.3125 5.29199C86.9375 4.87598 86.4219 4.66797 85.7656 4.66797Z" fill="#2F2E41"/>
</svg>
