<svg width="60" height="24" viewBox="0 0 60 24" fill="none" xmlns="http://www.w3.org/2000/svg">
<path d="M26.1599 10.7849H24.3567V16.8572H22.2734V10.7849H21.1259V9.78088L22.2734 9.22078V8.66069C22.2734 7.79095 22.4874 7.15572 22.9155 6.75501C23.3435 6.35429 24.0288 6.15393 24.9714 6.15393C25.6909 6.15393 26.3307 6.26094 26.8908 6.47496L26.358 8.00497C25.9391 7.87292 25.552 7.80689 25.1968 7.80689C24.9009 7.80689 24.6868 7.89568 24.5548 8.07327C24.4227 8.24631 24.3567 8.46944 24.3567 8.74265V9.22078H26.1599V10.7849Z" fill="#2F2E41"/>
<path d="M32.1889 16.8572L31.9089 15.8804H31.7996C31.5764 16.2356 31.26 16.5111 30.8501 16.7069C30.4403 16.8982 29.9736 16.9938 29.4499 16.9938C28.5528 16.9938 27.8766 16.7547 27.4213 16.2766C26.9659 15.7939 26.7382 15.1018 26.7382 14.2001V9.22078H28.8215V13.681C28.8215 14.232 28.9194 14.6464 29.1152 14.9242C29.311 15.1974 29.6229 15.334 30.051 15.334C30.6338 15.334 31.055 15.1405 31.3146 14.7534C31.5742 14.3618 31.7039 13.7152 31.7039 12.8136V9.22078H33.7872V16.8572H32.1889Z" fill="#2F2E41"/>
<path d="M40.7178 14.5895C40.7178 15.3727 40.4446 15.9692 39.8981 16.379C39.3563 16.7889 38.5435 16.9938 37.4597 16.9938C36.9042 16.9938 36.4306 16.9551 36.039 16.8777C35.6474 16.8048 35.2808 16.6955 34.9393 16.5498V14.8285C35.3263 15.0107 35.7612 15.1632 36.2439 15.2862C36.7311 15.4091 37.1592 15.4706 37.528 15.4706C38.2839 15.4706 38.6618 15.252 38.6618 14.8149C38.6618 14.651 38.6118 14.5189 38.5116 14.4187C38.4114 14.314 38.2384 14.1979 37.9925 14.0704C37.7466 13.9383 37.4187 13.7858 37.0089 13.6127C36.4215 13.3668 35.9889 13.1392 35.7111 12.9297C35.4379 12.7202 35.2375 12.4812 35.11 12.2125C34.9871 11.9393 34.9256 11.6046 34.9256 11.2084C34.9256 10.5299 35.1874 10.0063 35.7111 9.63744C36.2393 9.26404 36.9861 9.07734 37.9515 9.07734C38.8713 9.07734 39.7661 9.2777 40.6358 9.67842L40.0074 11.1811C39.6249 11.0172 39.2675 10.8828 38.9351 10.7781C38.6026 10.6734 38.2634 10.621 37.9173 10.621C37.3026 10.621 36.9952 10.7872 36.9952 11.1196C36.9952 11.3063 37.0931 11.468 37.2889 11.6046C37.4893 11.7412 37.9242 11.9438 38.5935 12.2125C39.1901 12.4538 39.6272 12.6792 39.905 12.8887C40.1828 13.0982 40.3877 13.3395 40.5197 13.6127C40.6518 13.886 40.7178 14.2115 40.7178 14.5895Z" fill="#2F2E41"/>
<path d="M44.9231 10.5595C44.4814 10.5595 44.1353 10.7007 43.8848 10.983C43.6344 11.2608 43.4909 11.657 43.4545 12.1715H46.3779C46.3688 11.657 46.2345 11.2608 45.9749 10.983C45.7154 10.7007 45.3648 10.5595 44.9231 10.5595ZM45.2168 16.9938C43.9873 16.9938 43.0265 16.6545 42.3343 15.9761C41.6422 15.2976 41.2961 14.3368 41.2961 13.0936C41.2961 11.8141 41.6149 10.8259 42.2524 10.1292C42.8944 9.42797 43.7801 9.07734 44.9094 9.07734C45.9886 9.07734 46.8287 9.38471 47.4298 9.99945C48.0309 10.6142 48.3314 11.4634 48.3314 12.5472V13.5581H43.4067C43.4295 14.1501 43.6048 14.6123 43.9326 14.9447C44.2605 15.2771 44.7204 15.4433 45.3124 15.4433C45.7723 15.4433 46.2072 15.3955 46.617 15.2998C47.0268 15.2042 47.4549 15.0517 47.9011 14.8422V16.4542C47.5368 16.6363 47.1475 16.7707 46.7331 16.8572C46.3187 16.9482 45.8133 16.9938 45.2168 16.9938Z" fill="#2F2E41"/>
<path d="M51.5258 16.8572H49.4425V6.22907H51.5258V16.8572Z" fill="#2F2E41"/>
<path d="M52.0426 9.22078H54.324L55.7652 13.5171C55.8881 13.8905 55.9724 14.3322 56.0179 14.8422H56.0589C56.109 14.3732 56.2069 13.9315 56.3526 13.5171L57.7665 9.22078H60L56.7693 17.8339C56.4733 18.6308 56.0498 19.2273 55.4988 19.6235C54.9524 20.0197 54.3126 20.2177 53.5795 20.2177C53.2197 20.2177 52.8668 20.179 52.5207 20.1016V18.4487C52.7712 18.5079 53.0444 18.5375 53.3404 18.5375C53.7092 18.5375 54.0303 18.4236 54.3035 18.1959C54.5812 17.9728 54.7975 17.6336 54.9524 17.1782L55.0753 16.8025L52.0426 9.22078Z" fill="#2F2E41"/>
<path d="M8.38624 1.49144C7.48034 1.49167 6.61162 1.80819 5.97104 2.37141C5.33048 2.93463 4.9705 3.69847 4.97023 4.49498V5.85943H3.4184C2.96948 5.8591 2.52488 5.93661 2.11006 6.08752C1.69524 6.23842 1.31833 6.45978 1.00091 6.7389C0.683476 7.018 0.431756 7.34942 0.260147 7.71415C0.0885383 8.0789 0.000408968 8.46982 0.000801443 8.86454V11.867H4.96943V14.5959H3.4176C2.51144 14.5958 1.64234 14.9122 1.00144 15.4754C0.360538 16.0387 0.000316538 16.8027 0 17.5994V22.7885H3.4192C3.8677 22.7884 4.31175 22.7105 4.72603 22.5593C5.14029 22.4083 5.51663 22.1869 5.8336 21.9079C6.15055 21.6289 6.40189 21.2977 6.57328 20.9333C6.74465 20.5688 6.83271 20.1784 6.83242 19.784H6.83679V17.8016L6.82765 17.8027V5.17283L6.83521 5.1744V4.4955C6.83599 4.1335 6.99961 3.78646 7.29035 3.53015C7.58107 3.27383 7.97532 3.12904 8.38704 3.12738H14.3216V4.4955C14.3203 4.85734 14.1561 5.20401 13.865 5.4597C13.5738 5.71539 13.1793 5.85931 12.7678 5.85995H7.53752V7.49764H12.767C13.6729 7.49769 14.5417 7.18133 15.1823 6.61816C15.8229 6.05499 16.1829 5.29114 16.183 4.49463V1.49109L8.38624 1.49144ZM4.97023 10.2292H1.86538V8.8647C1.86606 8.50228 2.02987 8.15483 2.32103 7.89827C2.61218 7.64172 3.007 7.49692 3.4192 7.49554H4.97103L4.97023 10.2292ZM4.97023 19.7855C4.96955 20.1473 4.80588 20.4942 4.51505 20.7501C4.22422 21.0062 3.8299 21.1505 3.4184 21.1514H1.86458V17.6003C1.86495 17.2382 2.02885 16.8912 2.32021 16.6353C2.6116 16.3794 3.00659 16.2357 3.4184 16.2359H4.97023V19.7855ZM7.53752 11.8668H11.4569V13.2327C11.4554 13.5945 11.2911 13.941 11 14.1967C10.7088 14.4523 10.3145 14.5963 9.90305 14.5971H7.53752V16.2359H9.90385C10.3525 16.2361 10.7968 16.1585 11.2114 16.0077C11.6259 15.8568 12.0026 15.6356 12.3198 15.3566C12.6371 15.0777 12.8887 14.7465 13.0603 14.382C13.2319 14.0175 13.3201 13.6268 13.3199 13.2323H13.3214V10.2288H7.53752V11.8668Z" fill="#6C63FF"/>
</svg>
