<svg width="254" height="27" viewBox="0 0 254 27" fill="none" xmlns="http://www.w3.org/2000/svg">
<path fill-rule="evenodd" clip-rule="evenodd" d="M0.758285 12.1019C2.05011 6.00028 6.71273 1.71722 12.0633 1.71722C17.4138 1.71722 22.0765 6.00028 23.3683 12.1019H22.3471C20.6245 12.0721 18.9372 12.6771 17.5222 13.8319C17.4405 13.9014 17.3553 13.9649 17.2669 14.0219H17.1478C17.0594 13.9649 16.9741 13.9014 16.8925 13.8319C13.9724 11.5245 10.1542 11.5245 7.23409 13.8319C7.15242 13.9014 7.06716 13.9649 6.9788 14.0219H6.85967C6.7713 13.9649 6.68604 13.9014 6.60438 13.8319C5.18934 12.6771 3.50205 12.0721 1.77944 12.1019H0.758285ZM20.5098 18.3719C21.034 17.8922 21.6837 17.6412 22.3479 17.6619H23.7179V14.4519H22.3479C21.178 14.4353 20.0349 14.8632 19.0887 15.6719C17.9958 16.6188 16.5055 16.6188 15.4126 15.6719C13.4256 14.0465 10.7876 14.0465 8.80062 15.6719C7.70769 16.6188 6.2174 16.6188 5.12447 15.6719C4.16663 14.8529 3.00711 14.4244 1.82275 14.4519H0.410156V17.6619H1.7802C2.44438 17.6412 3.09407 17.8922 3.61827 18.3719C5.60181 19.9986 8.23818 19.9986 10.2217 18.3719C10.7466 17.8937 11.3958 17.6429 12.0598 17.6619C12.7242 17.6396 13.3743 17.8907 13.8979 18.3719C15.8848 19.9974 18.5229 19.9974 20.5098 18.3719ZM22.3479 23.4019C21.6837 23.3812 21.034 23.6322 20.5098 24.1119C18.5229 25.7374 15.8848 25.7374 13.8979 24.1119C13.3743 23.6307 12.7242 23.3796 12.0598 23.4019C11.3958 23.3829 10.7466 23.6337 10.2217 24.1119C8.23818 25.7386 5.60181 25.7386 3.61827 24.1119C3.09407 23.6322 2.44438 23.3812 1.7802 23.4019H0.410156V20.1919H1.82275C3.00711 20.1644 4.16663 20.5929 5.12447 21.4119C6.2174 22.3588 7.70769 22.3588 8.80062 21.4119C10.7876 19.7865 13.4256 19.7865 15.4126 21.4119C16.5055 22.3588 17.9958 22.3588 19.0887 21.4119C20.0349 20.6032 21.178 20.1753 22.3479 20.1919H23.7179V23.4019H22.3479Z" fill="#9893A3" fill-opacity="0.6"/>
<path d="M34.5425 20.9519C33.4891 20.9519 32.7225 20.6186 32.2425 19.9519C31.7625 19.2719 31.5225 18.3053 31.5225 17.0519V10.8919H33.8225V16.7519C33.8225 17.5653 33.9425 18.1386 34.1825 18.4719C34.4225 18.8053 34.8091 18.9719 35.3425 18.9719C35.7691 18.9719 36.1425 18.8653 36.4625 18.6519C36.7958 18.4386 37.1491 18.0919 37.5225 17.6119V10.8919H39.8225V20.7119H37.9425L37.7625 19.2719H37.7025C37.2758 19.7786 36.8091 20.1853 36.3025 20.4919C35.8091 20.7986 35.2225 20.9519 34.5425 20.9519Z" fill="#9893A3" fill-opacity="0.6"/>
<path d="M41.7357 20.7119V10.8919H43.6357L43.7957 12.2319H43.8757C44.2891 11.7919 44.7357 11.4186 45.2157 11.1119C45.7091 10.8053 46.2624 10.6519 46.8757 10.6519C47.5957 10.6519 48.1691 10.8053 48.5957 11.1119C49.0357 11.4186 49.3691 11.8519 49.5957 12.4119C50.0624 11.9053 50.5491 11.4853 51.0557 11.1519C51.5624 10.8186 52.1291 10.6519 52.7557 10.6519C53.7957 10.6519 54.5624 10.9919 55.0557 11.6719C55.5491 12.3386 55.7957 13.2986 55.7957 14.5519V20.7119H53.4757V14.8519C53.4757 14.0386 53.3491 13.4653 53.0957 13.1319C52.8557 12.7986 52.4824 12.6319 51.9757 12.6319C51.3624 12.6319 50.6757 13.0386 49.9157 13.8519V20.7119H47.6157V14.8519C47.6157 14.0386 47.4891 13.4653 47.2357 13.1319C46.9957 12.7986 46.6157 12.6319 46.0957 12.6319C45.4824 12.6319 44.7957 13.0386 44.0357 13.8519V20.7119H41.7357Z" fill="#9893A3" fill-opacity="0.6"/>
<path d="M62.3512 20.9519C61.8979 20.9519 61.4379 20.8453 60.9712 20.6319C60.5179 20.4053 60.0845 20.0853 59.6712 19.6719H59.6112L59.4112 20.7119H57.5912V6.59192H59.8912V10.2319L59.8312 11.8719C60.2445 11.5119 60.6912 11.2186 61.1712 10.9919C61.6645 10.7653 62.1645 10.6519 62.6712 10.6519C63.2845 10.6519 63.8312 10.7719 64.3112 11.0119C64.7912 11.2386 65.1979 11.5719 65.5312 12.0119C65.8645 12.4386 66.1179 12.9586 66.2912 13.5719C66.4645 14.1853 66.5512 14.8719 66.5512 15.6319C66.5512 16.4719 66.4312 17.2253 66.1912 17.8919C65.9645 18.5453 65.6579 19.0986 65.2712 19.5519C64.8845 20.0053 64.4379 20.3519 63.9312 20.5919C63.4245 20.8319 62.8979 20.9519 62.3512 20.9519ZM61.8712 19.0519C62.5245 19.0519 63.0712 18.7719 63.5112 18.2119C63.9512 17.6386 64.1712 16.7919 64.1712 15.6719C64.1712 14.6853 64.0045 13.9186 63.6712 13.3719C63.3379 12.8253 62.7979 12.5519 62.0512 12.5519C61.3579 12.5519 60.6379 12.9186 59.8912 13.6519V18.2319C60.2379 18.5386 60.5779 18.7519 60.9112 18.8719C61.2579 18.9919 61.5779 19.0519 61.8712 19.0519Z" fill="#9893A3" fill-opacity="0.6"/>
<path d="M67.8607 20.7119V10.8919H69.7607L69.9207 12.6319H70.0007C70.3474 11.9919 70.7674 11.5053 71.2607 11.1719C71.7541 10.8253 72.2607 10.6519 72.7807 10.6519C73.2474 10.6519 73.6207 10.7186 73.9007 10.8519L73.5007 12.8519C73.3274 12.7986 73.1674 12.7586 73.0207 12.7319C72.8741 12.7053 72.6941 12.6919 72.4807 12.6919C72.0941 12.6919 71.6874 12.8453 71.2607 13.1519C70.8341 13.4453 70.4674 13.9653 70.1607 14.7119V20.7119H67.8607Z" fill="#9893A3" fill-opacity="0.6"/>
<path d="M78.3264 20.9519C77.6464 20.9519 77.013 20.8386 76.4264 20.6119C75.8397 20.3719 75.3264 20.0319 74.8864 19.5919C74.4464 19.1519 74.0997 18.6186 73.8464 17.9919C73.6064 17.3519 73.4864 16.6253 73.4864 15.8119C73.4864 15.0119 73.613 14.2919 73.8664 13.6519C74.1197 13.0119 74.453 12.4719 74.8664 12.0319C75.293 11.5919 75.7797 11.2519 76.3264 11.0119C76.873 10.7719 77.433 10.6519 78.0064 10.6519C78.673 10.6519 79.2597 10.7653 79.7664 10.9919C80.273 11.2186 80.693 11.5386 81.0264 11.9519C81.373 12.3653 81.633 12.8586 81.8064 13.4319C81.9797 14.0053 82.0664 14.6319 82.0664 15.3119C82.0664 15.5386 82.053 15.7519 82.0264 15.9519C82.013 16.1519 81.993 16.3119 81.9664 16.4319H75.7264C75.833 17.3119 76.1397 17.9919 76.6464 18.4719C77.1664 18.9386 77.8264 19.1719 78.6264 19.1719C79.053 19.1719 79.4464 19.1119 79.8064 18.9919C80.1797 18.8586 80.5464 18.6786 80.9064 18.4519L81.6864 19.8919C81.2197 20.1986 80.6997 20.4519 80.1264 20.6519C79.553 20.8519 78.953 20.9519 78.3264 20.9519ZM75.7064 14.8719H80.0664C80.0664 14.1119 79.8997 13.5186 79.5664 13.0919C79.2464 12.6519 78.7464 12.4319 78.0664 12.4319C77.4797 12.4319 76.9664 12.6386 76.5264 13.0519C76.0864 13.4653 75.813 14.0719 75.7064 14.8719Z" fill="#9893A3" fill-opacity="0.6"/>
<path d="M85.5031 20.9519C84.6764 20.9519 84.0964 20.7053 83.7631 20.2119C83.4298 19.7186 83.2631 19.0453 83.2631 18.1919V6.59192H85.5631V18.3119C85.5631 18.5919 85.6164 18.7919 85.7231 18.9119C85.8298 19.0186 85.9431 19.0719 86.0631 19.0719C86.1164 19.0719 86.1631 19.0719 86.2031 19.0719C86.2564 19.0719 86.3298 19.0586 86.4231 19.0319L86.7231 20.7519C86.4164 20.8853 86.0098 20.9519 85.5031 20.9519Z" fill="#9893A3" fill-opacity="0.6"/>
<path d="M89.9328 20.9519C89.1061 20.9519 88.5261 20.7053 88.1928 20.2119C87.8594 19.7186 87.6928 19.0453 87.6928 18.1919V6.59192H89.9928V18.3119C89.9928 18.5919 90.0461 18.7919 90.1528 18.9119C90.2594 19.0186 90.3728 19.0719 90.4928 19.0719C90.5461 19.0719 90.5928 19.0719 90.6328 19.0719C90.6861 19.0719 90.7594 19.0586 90.8528 19.0319L91.1528 20.7519C90.8461 20.8853 90.4394 20.9519 89.9328 20.9519Z" fill="#9893A3" fill-opacity="0.6"/>
<path d="M94.5025 20.9519C93.6358 20.9519 92.9358 20.6919 92.4025 20.1719C91.8691 19.6386 91.6025 18.9386 91.6025 18.0719C91.6025 17.5519 91.7091 17.0919 91.9225 16.6919C92.1491 16.2786 92.4958 15.9253 92.9625 15.6319C93.4425 15.3386 94.0425 15.0919 94.7625 14.8919C95.4958 14.6919 96.3691 14.5386 97.3825 14.4319C97.3691 14.1786 97.3291 13.9386 97.2625 13.7119C97.2091 13.4719 97.1091 13.2653 96.9625 13.0919C96.8291 12.9053 96.6491 12.7653 96.4225 12.6719C96.1958 12.5653 95.9158 12.5119 95.5825 12.5119C95.1025 12.5119 94.6291 12.6053 94.1625 12.7919C93.7091 12.9786 93.2625 13.2053 92.8225 13.4719L91.9825 11.9319C92.5291 11.5853 93.1425 11.2853 93.8225 11.0319C94.5025 10.7786 95.2358 10.6519 96.0225 10.6519C97.2491 10.6519 98.1625 11.0186 98.7625 11.7519C99.3758 12.4719 99.6825 13.5186 99.6825 14.8919V20.7119H97.7825L97.6225 19.6319H97.5425C97.1025 20.0053 96.6291 20.3186 96.1225 20.5719C95.6291 20.8253 95.0891 20.9519 94.5025 20.9519ZM95.2425 19.1519C95.6425 19.1519 96.0025 19.0586 96.3225 18.8719C96.6558 18.6853 97.0091 18.4186 97.3825 18.0719V15.8719C96.7158 15.9519 96.1558 16.0586 95.7025 16.1919C95.2491 16.3253 94.8825 16.4786 94.6025 16.6519C94.3225 16.8119 94.1225 16.9986 94.0025 17.2119C93.8825 17.4253 93.8225 17.6519 93.8225 17.8919C93.8225 18.3319 93.9558 18.6519 94.2225 18.8519C94.4891 19.0519 94.8291 19.1519 95.2425 19.1519Z" fill="#9893A3" fill-opacity="0.6"/>
<path fill-rule="evenodd" clip-rule="evenodd" d="M173.853 9.06369C173.853 5.34724 171.464 2.01167 167.838 0.663484C164.211 -0.684698 160.09 0.230927 157.459 2.96936H145.536V27H170.71V15.7693C172.708 14.0624 173.851 11.624 173.853 9.06369ZM169.007 9.0637C169.011 10.8431 167.892 12.4494 166.172 13.1329C164.451 13.8164 162.469 13.4424 161.15 12.1855C159.832 10.9286 159.436 9.03644 160.148 7.39212C160.86 5.7478 162.54 4.67542 164.403 4.67542C166.942 4.67541 169.002 6.63864 169.007 9.0637ZM150.38 22.3745H165.866V17.968C165.383 18.0445 164.894 18.0841 164.404 18.0866C159.188 18.0816 154.961 14.0448 154.956 9.06369C154.96 8.57109 155.008 8.07971 155.099 7.59485H150.38V22.3745Z" fill="#9893A3" fill-opacity="0.6"/>
<path d="M185.854 20.2C184.934 20.2 184.028 20.0533 183.134 19.76C182.254 19.4533 181.508 19.0133 180.894 18.44L182.194 16.1C182.848 16.5267 183.474 16.86 184.074 17.1C184.688 17.34 185.241 17.46 185.734 17.46C186.281 17.46 186.554 17.3 186.554 16.98C186.554 16.8067 186.441 16.6667 186.214 16.56C186.001 16.4533 185.654 16.3267 185.174 16.18C184.348 15.8867 183.654 15.6133 183.094 15.36C182.548 15.1067 182.134 14.8 181.854 14.44C181.588 14.0667 181.454 13.5733 181.454 12.96C181.454 11.88 181.854 10.9933 182.654 10.3C183.454 9.60668 184.561 9.26001 185.974 9.26001C186.681 9.26001 187.388 9.37334 188.094 9.60001C188.814 9.81334 189.508 10.2067 190.174 10.78L188.734 13.1C188.068 12.6867 187.501 12.3933 187.034 12.22C186.581 12.0467 186.174 11.96 185.814 11.96C185.254 11.96 184.974 12.1467 184.974 12.52C184.974 12.72 185.081 12.8733 185.294 12.98C185.508 13.0867 185.848 13.2067 186.314 13.34C187.221 13.6067 187.961 13.88 188.534 14.16C189.108 14.4267 189.528 14.7533 189.794 15.14C190.074 15.5267 190.214 16.0333 190.214 16.66C190.214 17.7667 189.821 18.6333 189.034 19.26C188.261 19.8867 187.201 20.2 185.854 20.2Z" fill="#9893A3" fill-opacity="0.6"/>
<path d="M196.594 20.2C195.74 20.2 194.974 19.96 194.294 19.48C193.614 19 193.08 18.3467 192.694 17.52C192.307 16.6933 192.114 15.7533 192.114 14.7C192.114 13.66 192.32 12.7333 192.734 11.92C193.16 11.1067 193.74 10.4667 194.474 10C195.207 9.52001 196.04 9.28001 196.974 9.28001C197.76 9.28001 198.427 9.44001 198.974 9.76001C199.534 10.08 200 10.5267 200.374 11.1V9.48001H203.674V24.28H199.874V18.44C199.26 19.6133 198.167 20.2 196.594 20.2ZM198.074 17C198.78 17 199.38 16.64 199.874 15.92V14.04C199.7 13.5733 199.427 13.2 199.054 12.92C198.694 12.6267 198.314 12.48 197.914 12.48C197.367 12.48 196.907 12.7067 196.534 13.16C196.174 13.6133 195.994 14.16 195.994 14.8C195.994 15.4533 196.187 15.9867 196.574 16.4C196.96 16.8 197.46 17 198.074 17Z" fill="#9893A3" fill-opacity="0.6"/>
<path d="M206.503 16.4V9.48001H210.303V15.54C210.303 15.9933 210.403 16.3533 210.603 16.62C210.816 16.8733 211.103 17 211.463 17C211.756 17 212.056 16.9333 212.363 16.8C212.67 16.6667 212.976 16.3733 213.283 15.92V9.48001H217.083V15.8C217.083 16.16 217.136 16.4133 217.243 16.56C217.35 16.6933 217.536 16.7733 217.803 16.8V20C217.15 20.1333 216.616 20.2 216.203 20.2C214.91 20.2 214.163 19.7133 213.963 18.74L213.883 18.36C213.39 19.0133 212.796 19.4867 212.103 19.78C211.423 20.06 210.65 20.2 209.783 20.2C208.73 20.2 207.916 19.8733 207.343 19.22C206.783 18.5667 206.503 17.6267 206.503 16.4Z" fill="#9893A3" fill-opacity="0.6"/>
<path d="M219.777 16.82C219.777 16.1133 219.97 15.4933 220.357 14.96C220.744 14.4133 221.277 13.9867 221.957 13.68C222.65 13.3733 223.437 13.22 224.317 13.22C225.17 13.22 225.877 13.3533 226.437 13.62V13.3C226.437 12.8067 226.29 12.44 225.997 12.2C225.717 11.96 225.257 11.84 224.617 11.84C224.03 11.84 223.477 11.94 222.957 12.14C222.45 12.3267 221.917 12.6067 221.357 12.98L220.257 10.62C221.644 9.72668 223.224 9.28001 224.997 9.28001C226.664 9.28001 227.95 9.66001 228.857 10.42C229.777 11.1667 230.237 12.28 230.237 13.76V15.8C230.237 16.16 230.29 16.4133 230.397 16.56C230.504 16.6933 230.69 16.7733 230.957 16.8V20C230.65 20.0667 230.357 20.1133 230.077 20.14C229.81 20.18 229.57 20.2 229.357 20.2C228.677 20.2 228.157 20.08 227.797 19.84C227.45 19.5867 227.224 19.22 227.117 18.74L227.037 18.36C226.077 19.5867 224.884 20.2 223.457 20.2C222.764 20.2 222.137 20.0533 221.577 19.76C221.017 19.4667 220.577 19.0667 220.257 18.56C219.937 18.04 219.777 17.46 219.777 16.82ZM225.937 17.08C226.27 16.8533 226.437 16.6067 226.437 16.34V15.56C226.224 15.48 225.977 15.4133 225.697 15.36C225.43 15.3067 225.19 15.28 224.977 15.28C224.524 15.28 224.137 15.3933 223.817 15.62C223.51 15.8467 223.357 16.1333 223.357 16.48C223.357 16.7733 223.47 17.0133 223.697 17.2C223.937 17.3867 224.237 17.48 224.597 17.48C225.09 17.48 225.537 17.3467 225.937 17.08Z" fill="#9893A3" fill-opacity="0.6"/>
<path d="M240.47 12.72C239.736 12.72 239.07 12.8 238.47 12.96C237.87 13.12 237.423 13.3867 237.13 13.76V20H233.33V9.48001H236.81V11.48C237.183 10.7733 237.65 10.2333 238.21 9.86001C238.77 9.47334 239.363 9.28001 239.99 9.28001C240.243 9.28001 240.403 9.28668 240.47 9.30001V12.72Z" fill="#9893A3" fill-opacity="0.6"/>
<path d="M247.83 20.2C246.603 20.2 245.557 19.9533 244.69 19.46C243.837 18.9667 243.183 18.3133 242.73 17.5C242.29 16.6867 242.07 15.8133 242.07 14.88C242.07 13.8667 242.29 12.94 242.73 12.1C243.17 11.2467 243.817 10.5667 244.67 10.06C245.523 9.54001 246.577 9.28001 247.83 9.28001C249.083 9.28001 250.137 9.53334 250.99 10.04C251.843 10.5467 252.49 11.2133 252.93 12.04C253.37 12.8667 253.59 13.7667 253.59 14.74C253.59 15.1533 253.557 15.54 253.49 15.9H246.11C246.15 16.46 246.357 16.8667 246.73 17.12C247.103 17.36 247.51 17.48 247.95 17.48C248.363 17.48 248.75 17.3867 249.11 17.2C249.483 17.0133 249.73 16.7533 249.85 16.42L253.07 17.34C252.643 18.18 251.983 18.8667 251.09 19.4C250.197 19.9333 249.11 20.2 247.83 20.2ZM246.03 13.62H249.51C249.457 13.1133 249.27 12.7133 248.95 12.42C248.643 12.1267 248.25 11.98 247.77 11.98C247.29 11.98 246.897 12.1267 246.59 12.42C246.283 12.7133 246.097 13.1133 246.03 13.62Z" fill="#9893A3" fill-opacity="0.6"/>
</svg>
