<svg width="388" height="36" viewBox="0 0 388 36" fill="none" xmlns="http://www.w3.org/2000/svg">
<path fill-rule="evenodd" clip-rule="evenodd" d="M26.2651 9.12085C27.1594 10.0928 27.8963 11.1772 28.453 12.3408C29.2639 14.0375 29.6811 15.8694 29.6782 17.7208C29.6722 25.1942 23.0525 31.2543 14.877 31.2708C12.9748 31.2699 11.0909 30.9302 9.33072 30.2708C8.07525 29.8148 6.89669 29.1987 5.83008 28.4408C1.29345 25.2804 -0.852832 20.0182 0.312982 14.9143C1.4788 9.81032 5.74923 5.77289 11.2903 4.53592C16.8313 3.29896 22.6569 5.08261 26.2651 9.12085ZM19.8103 7.91087C18.2615 7.25201 16.5739 6.9107 14.8656 6.91087L14.8765 6.89087C10.8257 6.88811 7.0557 8.78265 4.88765 11.9106C2.71959 15.0386 2.45578 18.9638 4.18865 22.3109C4.68278 21.8363 4.98728 21.2233 5.05287 20.5709C5.45075 18.0583 7.60988 16.0846 10.3585 15.7209C11.9093 15.5923 13.1478 14.4853 13.3231 13.0709C13.721 10.5583 15.8801 8.58458 18.6288 8.22087C19.0355 8.16423 19.4326 8.06004 19.8103 7.91087ZM5.81875 24.7208C5.86251 24.6841 5.90627 24.6486 5.95003 24.613C6.03754 24.5419 6.12505 24.4708 6.21257 24.3908C7.1858 23.5283 7.81052 22.3897 7.98477 21.1608C8.05542 20.4701 8.39281 19.8249 8.9365 19.3408C9.45968 18.843 10.1639 18.5371 10.9166 18.4808C13.6652 18.1171 15.8243 16.1434 16.2222 13.6308C16.2695 12.9083 16.6087 12.2277 17.1739 11.7208C17.71 11.2327 18.421 10.9379 19.1759 10.8908C20.4054 10.7362 21.5521 10.2365 22.4577 9.46082C23.4889 10.2429 24.3627 11.1837 25.0395 12.2408C24.9979 12.2922 24.9502 12.3391 24.8972 12.3808C24.3751 12.883 23.6718 13.1956 22.9172 13.2608C20.1651 13.6183 18.0026 15.5951 17.6115 18.1108C17.4526 19.5302 16.2221 20.6508 14.6688 20.7908C11.9125 21.1517 9.7421 23.1235 9.33033 25.6408C9.27145 26.1295 9.08784 26.5988 8.79429 27.0108C7.6719 26.4017 6.66665 25.628 5.81875 24.7208ZM11.5836 28.1609C12.6506 28.4406 13.7553 28.582 14.8652 28.5809V28.5309C18.5287 28.5179 21.9791 26.9547 24.2093 24.2976C26.4394 21.6406 27.198 18.1892 26.2634 14.9509C25.433 15.4877 24.4717 15.8309 23.4631 15.9509C21.9142 16.0953 20.6896 17.2149 20.5315 18.6309C20.1324 21.1466 17.968 23.1212 15.2153 23.4809C13.6664 23.6253 12.4417 24.7449 12.2837 26.1609C12.1859 26.861 11.9486 27.5389 11.5836 28.1609Z" fill="#9893A3" fill-opacity="0.6"/>
<path d="M40.6897 23.3914H42.9302C43.5797 23.3914 43.9044 23.0007 43.9044 22.2195V17.3367C43.9044 16.5554 43.5797 16.1648 42.9302 16.1648H40.6897C40.0403 16.1648 39.7156 16.5554 39.7156 17.3367V22.2195C39.7156 23.0007 40.0403 23.3914 40.6897 23.3914ZM40.6897 25.1492C38.7415 25.1492 37.7673 24.1726 37.7673 22.2195V10.8914L39.6182 10.0125H39.7156V14.7097C39.9754 14.5079 40.3001 14.407 40.6897 14.407H42.9302C44.8785 14.407 45.8527 15.3835 45.8527 17.3367V22.2195C45.8527 24.1726 44.8785 25.1492 42.9302 25.1492H40.6897Z" fill="#9893A3" fill-opacity="0.6"/>
<path d="M50.4058 12.2488C50.1785 12.0144 50.0648 11.7345 50.0648 11.4089C50.0648 11.0769 50.1785 10.7937 50.4058 10.5593C50.6331 10.325 50.9091 10.2078 51.2338 10.2078C51.5585 10.2078 51.8345 10.325 52.0618 10.5593C52.2891 10.7937 52.4027 11.0769 52.4027 11.4089C52.4027 11.7345 52.2891 12.0144 52.0618 12.2488C51.8345 12.4832 51.5585 12.6003 51.2338 12.6003C50.9091 12.6003 50.6331 12.4832 50.4058 12.2488ZM50.2596 25.5398V14.8953L52.1105 14.0164H52.2079V24.6609L50.3571 25.5398H50.2596Z" fill="#9893A3" fill-opacity="0.6"/>
<path d="M56.6149 25.5398V17.3367C56.6149 15.3835 57.589 14.407 59.5373 14.407H61.7778C63.7261 14.407 64.7002 15.3835 64.7002 17.3367V24.6609L62.8494 25.5398H62.752V17.3367C62.752 16.5554 62.4272 16.1648 61.7778 16.1648H59.5373C58.8879 16.1648 58.5632 16.5554 58.5632 17.3367V24.6609L56.7123 25.5398H56.6149Z" fill="#9893A3" fill-opacity="0.6"/>
<path d="M71.0555 23.3914H73.1012C73.7506 23.3914 74.0753 23.0007 74.0753 22.2195V20.8816C74.0753 20.1003 73.7506 19.7097 73.1012 19.7097H71.0555C70.4061 19.7097 70.0813 20.1003 70.0813 20.8816V22.2195C70.0813 23.0007 70.4061 23.3914 71.0555 23.3914ZM71.0555 25.1492C69.1072 25.1492 68.1331 24.1726 68.1331 22.2195V20.8816C68.1331 18.9285 69.1072 17.9519 71.0555 17.9519H73.1012C73.4389 17.9519 73.7636 18.0496 74.0753 18.2449V17.3367C74.0753 16.5554 73.7506 16.1648 73.1012 16.1648H69.6138V16.0671L70.3931 14.407H73.1012C75.0494 14.407 76.0236 15.3835 76.0236 17.3367V24.6609L74.1727 25.5398H74.0753V24.8562C73.8285 25.0515 73.5038 25.1492 73.1012 25.1492H71.0555Z" fill="#9893A3" fill-opacity="0.6"/>
<path d="M81.2293 25.5398V16.1843H78.7258V16.0867L79.5149 14.407H81.2293V10.8914L83.0802 10.0125H83.1776V14.407H85.6811V14.5046L84.8921 16.1843H83.1776V24.6609L81.3268 25.5398H81.2293Z" fill="#9893A3" fill-opacity="0.6"/>
<path d="M91.3058 23.3914H93.5463C94.1957 23.3914 94.5204 23.0007 94.5204 22.2195V17.3367C94.5204 16.5554 94.1957 16.1648 93.5463 16.1648H91.3058C90.6564 16.1648 90.3317 16.5554 90.3317 17.3367V22.2195C90.3317 23.0007 90.6564 23.3914 91.3058 23.3914ZM91.3058 25.1492C89.3575 25.1492 88.3834 24.1726 88.3834 22.2195V17.3367C88.3834 15.3835 89.3575 14.407 91.3058 14.407H93.5463C95.4946 14.407 96.4687 15.3835 96.4687 17.3367V22.2195C96.4687 24.1726 95.4946 25.1492 93.5463 25.1492H91.3058Z" fill="#9893A3" fill-opacity="0.6"/>
<path d="M100.389 25.5398V17.3367C100.389 15.3835 101.363 14.407 103.311 14.407H105.746V14.5046L104.967 16.1648H103.311C102.662 16.1648 102.337 16.5554 102.337 17.3367V24.6609L100.486 25.5398H100.389Z" fill="#9893A3" fill-opacity="0.6"/>
<path fill-rule="evenodd" clip-rule="evenodd" d="M153.89 1.15622V26.4065C153.89 26.7164 153.776 27.0137 153.574 27.2328C153.373 27.452 153.099 27.5751 152.814 27.5751H152.562C151.967 27.5751 151.486 27.0519 151.486 26.4065V1.15622C151.492 0.515649 151.972 -3.62506e-05 152.562 0H152.814C153.403 -3.62506e-05 153.883 0.515649 153.89 1.15622ZM167.089 17.1625C167.317 16.9275 167.623 16.804 167.936 16.8211L167.879 16.8459C168.212 16.809 168.543 16.9324 168.786 17.1835C169.028 17.4346 169.157 17.7882 169.138 18.1513V24.9892C169.138 25.7101 168.6 26.2946 167.936 26.2946C167.272 26.2946 166.734 25.7101 166.734 24.9892V18.0643C166.734 17.7235 166.862 17.3975 167.089 17.1625ZM170.524 20.7621C170.524 20.0755 171.037 19.5189 171.669 19.5189C172 19.4858 172.328 19.6109 172.568 19.8615C172.808 20.1122 172.935 20.4636 172.917 20.8243V22.3286C172.917 23.0461 172.381 23.6278 171.721 23.6278C171.06 23.6278 170.524 23.0461 170.524 22.3286V20.7621ZM161.479 31.1059V22.1172C161.121 22.4128 160.681 22.5663 160.231 22.5524C159.819 22.5413 159.42 22.3938 159.087 22.1297V31.1059C159.087 31.8234 159.622 32.4051 160.283 32.4051C160.944 32.4051 161.479 31.8234 161.479 31.1059ZM156.488 25.5238C156.076 25.5104 155.678 25.3631 155.344 25.1011V34.1146C155.344 34.8355 155.882 35.42 156.546 35.42C157.209 35.42 157.748 34.8355 157.748 34.1146V25.1632C157.374 25.4256 156.933 25.5519 156.488 25.5238ZM164.136 19.4817C163.704 19.4785 163.285 19.3308 162.934 19.059V28.0973C162.934 28.8183 163.472 29.4027 164.136 29.4027C164.799 29.4027 165.338 28.8183 165.338 28.0973V19.0714C164.974 19.3652 164.531 19.5184 164.078 19.5065L164.136 19.4817ZM156.614 24.5664H156.362C155.768 24.5664 155.286 24.0432 155.286 23.3978V4.16482C155.292 3.52426 155.772 3.00857 156.362 3.00861H156.614C157.204 3.00857 157.684 3.52426 157.69 4.16482V23.4226C157.69 24.0681 157.208 24.5913 156.614 24.5913V24.5664ZM160.14 21.6075H160.403C160.991 21.6075 161.468 21.0899 161.468 20.4513V7.14863C161.468 6.50803 160.993 5.9868 160.403 5.97998H160.14C159.856 5.97996 159.583 6.10348 159.383 6.32301C159.183 6.54254 159.072 6.83983 159.075 7.14863V20.4513C159.075 21.0899 159.552 21.6075 160.14 21.6075ZM164.192 18.5616H163.952C163.362 18.5616 162.882 18.0459 162.876 17.4054V10.2443C162.857 9.92163 162.962 9.60484 163.166 9.36927C163.37 9.13369 163.654 9.00038 163.952 9.00104H164.204C164.798 9.00104 165.28 9.52426 165.28 10.1697V17.3805C165.283 17.6926 165.171 17.993 164.969 18.2149C164.767 18.4368 164.491 18.5616 164.204 18.5616H164.192ZM167.741 15.8886H167.993H168.004C168.594 15.8818 169.069 15.3606 169.069 14.72V12.8675C169.062 12.227 168.582 11.7113 167.993 11.7113H167.741C167.151 11.7113 166.671 12.227 166.665 12.8675V14.72C166.665 15.3654 167.146 15.8886 167.741 15.8886Z" fill="#9893A3" fill-opacity="0.6"/>
<path d="M194.111 16.5849C194.111 18.1083 193.786 19.2978 193.135 20.1533C192.485 21.0029 191.577 21.4277 190.411 21.4277C189.38 21.4277 188.556 21.0322 187.941 20.2411L187.827 21.2519H185.542V7.75189H188.082V12.5947C188.668 11.9091 189.438 11.5663 190.393 11.5663C191.553 11.5663 192.462 11.9941 193.118 12.8495C193.78 13.6992 194.111 14.8974 194.111 16.4443V16.5849ZM191.571 16.4003C191.571 15.4394 191.419 14.7392 191.114 14.2997C190.809 13.8544 190.355 13.6318 189.752 13.6318C188.943 13.6318 188.386 13.9628 188.082 14.6249V18.3779C188.392 19.0458 188.955 19.3798 189.769 19.3798C190.59 19.3798 191.129 18.9755 191.386 18.1669C191.51 17.7802 191.571 17.1913 191.571 16.4003ZM202.38 20.2851C201.753 21.0468 200.885 21.4277 199.778 21.4277C198.759 21.4277 197.979 21.1347 197.44 20.5488C196.907 19.9628 196.635 19.1044 196.623 17.9736V11.7421H199.163V17.8857C199.163 18.8759 199.614 19.371 200.516 19.371C201.378 19.371 201.969 19.0722 202.292 18.4745V11.7421H204.841V21.2519H202.45L202.38 20.2851ZM211.307 17.6572L213.065 11.7421H215.79L211.967 22.7285L211.756 23.2294C211.187 24.4716 210.25 25.0927 208.943 25.0927C208.574 25.0927 208.199 25.037 207.818 24.9257V23.0009L208.205 23.0097C208.685 23.0097 209.043 22.9365 209.277 22.79C209.517 22.6435 209.705 22.4003 209.84 22.0605L210.138 21.2783L206.807 11.7421H209.541L211.307 17.6572ZM219.145 11.7421L219.18 13.289C219.532 12.7148 219.971 12.2841 220.499 11.997C221.026 11.7099 221.612 11.5663 222.257 11.5663C223.757 11.5663 224.709 12.1816 225.113 13.412C225.453 12.8203 225.907 12.3661 226.475 12.0497C227.044 11.7275 227.671 11.5663 228.356 11.5663C230.395 11.5663 231.435 12.6796 231.476 14.9062V21.2519H230.422V14.9853C230.416 14.1357 230.231 13.5058 229.868 13.0956C229.51 12.6855 228.925 12.4804 228.11 12.4804C227.354 12.4921 226.716 12.7382 226.194 13.2187C225.673 13.6933 225.383 14.2734 225.324 14.9589V21.2519H224.269V14.9062C224.263 14.0917 224.07 13.4853 223.689 13.0869C223.314 12.6826 222.734 12.4804 221.949 12.4804C221.287 12.4804 220.719 12.6708 220.244 13.0517C219.769 13.4267 219.418 13.9863 219.189 14.7304V21.2519H218.135V11.7421H219.145ZM238.831 21.4277C238.022 21.4277 237.29 21.2285 236.634 20.83C235.983 20.4316 235.476 19.8779 235.113 19.1689C234.75 18.454 234.568 17.6542 234.568 16.7695V16.3915C234.568 15.4775 234.744 14.6542 235.095 13.9218C235.453 13.1894 235.948 12.6152 236.581 12.1992C237.214 11.7773 237.899 11.5663 238.637 11.5663C239.792 11.5663 240.706 11.9619 241.38 12.7529C242.059 13.538 242.399 14.6132 242.399 15.9785V16.5673H235.614V16.7695C235.614 17.8476 235.922 18.747 236.537 19.4677C237.158 20.1826 237.937 20.54 238.875 20.54C239.437 20.54 239.932 20.4374 240.36 20.2324C240.794 20.0273 241.186 19.6992 241.538 19.248L242.197 19.749C241.424 20.8681 240.302 21.4277 238.831 21.4277ZM238.637 12.4628C237.846 12.4628 237.178 12.7529 236.634 13.3329C236.094 13.913 235.766 14.6923 235.649 15.6708H241.353V15.5566C241.324 14.6425 241.063 13.8984 240.571 13.3242C240.079 12.7499 239.434 12.4628 238.637 12.4628Z" fill="#9893A3" fill-opacity="0.6"/>
<path d="M304.101 19.8352H306.613V30.5703H304.101V19.8352Z" fill="#9893A3" fill-opacity="0.6"/>
<path fill-rule="evenodd" clip-rule="evenodd" d="M310.824 23.2866C309.153 23.8921 308.066 25.3153 308.069 26.8922C308.058 27.9281 308.525 28.9243 309.367 29.6561C310.208 30.3879 311.352 30.7937 312.541 30.7819C314.35 30.7819 315.981 29.8316 316.672 28.3745C317.364 26.9174 316.98 25.2406 315.699 24.1267C314.419 23.0127 312.494 22.6811 310.824 23.2866ZM312.508 25.2431C313.574 25.2272 314.456 25.9632 314.483 26.8922C314.512 27.3523 314.318 27.8017 313.949 28.1316C313.58 28.4616 313.069 28.6419 312.541 28.629C311.474 28.6287 310.608 27.8794 310.599 26.9502C310.59 26.0209 311.442 25.259 312.508 25.2431Z" fill="#9893A3" fill-opacity="0.6"/>
<path fill-rule="evenodd" clip-rule="evenodd" d="M337.205 30.2373V23.246L334.735 23.2679V23.9977C334.134 23.3583 333.221 23.0039 332.273 23.0417C329.906 23.0417 327.986 24.7146 327.986 26.7782C327.986 28.8418 329.906 30.5146 332.273 30.5146C333.222 30.5559 334.136 30.2009 334.735 29.5586V30.2373C334.784 30.6883 334.589 31.1335 334.209 31.4422C333.829 31.7509 333.305 31.8881 332.792 31.8136C332.006 31.8704 331.259 31.503 330.908 30.8868L328.748 31.9742C329.593 33.1721 331.134 33.8591 332.742 33.7549C334.986 33.7549 337.205 32.7113 337.205 30.2373ZM333.533 25.0819C334.293 25.3807 334.769 26.052 334.734 26.7781C334.75 27.248 334.537 27.7016 334.148 28.027C333.758 28.3523 333.229 28.519 332.691 28.4858C331.857 28.4852 331.108 28.043 330.797 27.3686C330.486 26.6943 330.677 25.923 331.279 25.42C331.881 24.917 332.773 24.7832 333.533 25.0819Z" fill="#9893A3" fill-opacity="0.6"/>
<path fill-rule="evenodd" clip-rule="evenodd" d="M320.635 23.3378C318.964 23.9433 317.877 25.3665 317.881 26.9434C317.869 27.9793 318.337 28.9755 319.178 29.7073C320.02 30.4392 321.163 30.8449 322.352 30.8331C324.161 30.8331 325.792 29.8828 326.484 28.4257C327.176 26.9686 326.791 25.2919 325.511 24.1779C324.23 23.0639 322.306 22.7323 320.635 23.3378ZM322.319 25.2943C323.385 25.2784 324.267 26.0144 324.294 26.9434H324.278C324.306 27.4009 324.114 27.8479 323.749 28.1774C323.383 28.5068 322.877 28.689 322.352 28.6803C321.285 28.6799 320.419 27.9307 320.41 27.0014C320.401 26.0721 321.253 25.3102 322.319 25.2943Z" fill="#9893A3" fill-opacity="0.6"/>
<path fill-rule="evenodd" clip-rule="evenodd" d="M340.192 19.9155C339.35 19.9155 338.668 20.5101 338.668 21.2437C338.673 21.9756 339.352 22.5679 340.192 22.5719C341.034 22.5719 341.716 21.9772 341.716 21.2437C341.716 20.5101 341.034 19.9155 340.192 19.9155ZM341.441 23.2141H338.928V30.5703H341.441V23.2141Z" fill="#9893A3" fill-opacity="0.6"/>
<path fill-rule="evenodd" clip-rule="evenodd" d="M351.308 29.5674C352.065 28.8372 352.455 27.8743 352.394 26.8922C352.453 25.9113 352.061 24.9503 351.305 24.2216C350.549 23.493 349.492 23.0569 348.366 23.0098C347.417 22.9701 346.497 23.2988 345.854 23.9074V23.2141H343.342V33.5332H345.854V29.8843C346.497 30.4929 347.417 30.8216 348.366 30.7819C349.493 30.7348 350.552 30.2976 351.308 29.5674ZM347.856 25.1851C348.952 25.177 349.854 25.9366 349.882 26.8921H349.865C349.905 27.3755 349.703 27.8502 349.311 28.1943C348.92 28.5383 348.377 28.7181 347.822 28.6874C346.725 28.6632 345.854 27.8774 345.863 26.9217C345.872 25.9659 346.759 25.1931 347.856 25.1851Z" fill="#9893A3" fill-opacity="0.6"/>
<path d="M360.215 28.3664C360.215 30.0594 358.541 30.7819 356.698 30.7819C355.193 30.8981 353.758 30.2047 353.073 29.0305L355.267 27.9431C355.45 28.49 356.046 28.8516 356.698 28.8115C357.31 28.8115 357.611 28.6437 357.611 28.3518C357.611 27.5417 353.424 27.9723 353.424 25.4326C353.424 23.8271 354.982 23.0171 356.774 23.0171C358.12 22.9814 359.383 23.5848 360.073 24.5934L357.871 25.6005C357.672 25.2067 357.226 24.9521 356.732 24.951C356.297 24.951 356.029 25.0969 356.029 25.367C356.062 26.2062 360.215 25.6443 360.215 28.3664Z" fill="#9893A3" fill-opacity="0.6"/>
<path d="M369.46 23.2141V30.5703H366.948V29.8843C366.355 30.5026 365.459 30.8363 364.536 30.7819C362.862 30.7819 361.38 29.7238 361.38 27.7315V23.2141H363.892V27.4104C363.847 27.7725 363.992 28.133 364.285 28.3919C364.579 28.6509 364.991 28.7809 365.407 28.7459C366.328 28.7459 366.973 28.2788 366.973 27.2352V23.2141H369.46Z" fill="#9893A3" fill-opacity="0.6"/>
<path d="M383.98 26.0602V30.5702H381.468V26.2499C381.468 25.5201 381.057 25.0385 380.253 25.0385C379.45 25.0385 378.93 25.5566 378.93 26.4251V30.5702H376.418V26.2499C376.418 25.5201 376.016 25.0385 375.204 25.0385C374.392 25.0385 373.89 25.5566 373.89 26.4251V30.5702H371.377V23.214H373.89V23.8927C374.423 23.2837 375.274 22.9514 376.15 23.0097C377.032 22.9724 377.871 23.3409 378.361 23.9803C378.931 23.3122 379.854 22.9457 380.806 23.0097C382.715 23.0097 383.98 24.2211 383.98 26.0602Z" fill="#9893A3" fill-opacity="0.6"/>
<path d="M386.125 23.1703C387.161 23.1703 388 22.4384 388 21.5356C388 20.6328 387.161 19.9009 386.125 19.9009C385.089 19.9009 384.249 20.6328 384.249 21.5356C384.249 22.4384 385.089 23.1703 386.125 23.1703Z" fill="#9893A3" fill-opacity="0.6"/>
<path d="M328.47 15.3007C332.326 15.3007 335.452 12.246 335.452 8.4777C335.452 4.70944 332.326 1.65466 328.47 1.65466C324.613 1.65466 321.487 4.70944 321.487 8.4777C321.487 12.246 324.613 15.3007 328.47 15.3007Z" fill="#9893A3" fill-opacity="0.4"/>
<path d="M345.856 15.3007C349.712 15.3007 352.838 12.246 352.838 8.4777C352.838 4.70944 349.712 1.65466 345.856 1.65466C341.999 1.65466 338.873 4.70944 338.873 8.4777C338.873 12.246 341.999 15.3007 345.856 15.3007Z" fill="#CFCFDE" fill-opacity="0.5"/>
<rect x="304.101" y="1.65466" width="13.9652" height="13.6461" fill="#9893A3" fill-opacity="0.5"/>
</svg>
