<svg width="388" height="264" viewBox="0 0 388 264" fill="none" xmlns="http://www.w3.org/2000/svg">
<g clip-path="url(#clip0_172_5793)">
<path d="M26.1115 198.765C24.269 198.765 22.4228 198.841 20.6199 198.994L20.3575 199.016C8.39844 200.074 -0.349055 206.212 0.0107044 213.294L0.0802543 214.575C0.126119 215.384 0.174986 216.255 0.215209 217.22C0.236994 217.696 0.88625 218.062 1.69412 218.062H295.858C316.598 217.936 337.263 217.777 357.275 217.59C361.028 217.598 364.779 217.404 368.511 217.008C374.073 216.349 377.933 215.043 380.313 213.016H380.314C383.274 210.502 383.367 207.336 383.188 203.759C382.824 196.536 382.462 188.949 382.101 181.384C381.782 174.718 381.465 168.069 381.148 161.703C380.952 157.925 380.516 154.591 377.154 152.042C373.51 149.286 366.866 147.889 357.403 147.889C357.289 147.889 357.176 147.889 357.06 147.89C327.407 147.995 298.025 158.199 283.948 173.281C282.327 175.018 280.816 176.878 279.355 178.676C277.197 181.333 274.965 184.079 272.302 186.536C270.86 187.883 269.301 189.1 267.643 190.17C267.529 190.249 267.398 190.334 267.259 190.414C266.943 190.621 266.612 190.82 266.29 190.997C264.401 192.089 262.411 192.994 260.348 193.701L260.139 193.771C259.983 193.827 259.813 193.883 259.643 193.934C258.451 194.317 257.213 194.648 255.973 194.916C250.607 196.099 244.505 196.383 237.838 195.758C231.715 195.169 225.671 193.937 219.807 192.081C213.633 190.128 207.854 187.693 202.265 185.339C199.811 184.305 197.272 183.235 194.736 182.222C194.259 182.031 193.79 181.845 193.315 181.658C190.218 180.451 187.41 179.453 184.731 178.609C178.094 176.509 171.224 175.235 164.276 174.817C156.901 174.413 150.402 175.175 144.964 177.077C143.464 177.599 142.005 178.229 140.595 178.961C134.154 182.308 130.183 187.249 126.344 192.027C121.567 197.969 116.628 204.115 106.875 207.301C95.6204 210.981 79.193 209.452 67.5708 206.794C63.9168 205.958 60.2672 204.996 56.7376 204.066C55.3121 203.69 53.8856 203.317 52.4581 202.946C49.6529 202.221 47.3571 201.666 45.2331 201.197L44.5613 201.048C44.1876 200.966 43.8136 200.885 43.4328 200.808C40.9099 200.278 38.5607 199.86 36.2472 199.532L35.6999 199.452C34.6026 199.308 33.5766 199.187 32.5699 199.086L32.1681 199.046C30.1963 198.858 28.1558 198.765 26.1115 198.765Z" fill="white"/>
<path d="M330.294 206.669C338.571 199.204 350.883 195.451 361.21 199.637C350.617 205.523 342.445 214.969 338.141 226.304C336.497 230.682 335.124 235.722 331.08 238.066C328.564 239.524 325.433 239.595 322.612 238.891C319.791 238.187 317.205 236.776 314.654 235.379L313.928 235.362C317.186 224.699 322.017 214.134 330.294 206.669Z" fill="#CFCFDE"/>
<path d="M361.152 199.863C352.006 201.046 343.464 205.083 336.741 211.401C335.27 212.735 334.017 214.293 333.031 216.018C332.124 217.729 331.691 219.652 331.778 221.587C331.823 223.392 332.077 225.234 331.683 227.019C331.467 227.93 331.062 228.785 330.493 229.528C329.924 230.271 329.205 230.885 328.382 231.33C326.361 232.493 324.043 232.859 321.764 233.139C319.233 233.449 316.599 233.732 314.409 235.152C314.143 235.324 313.892 234.902 314.157 234.73C317.968 232.259 322.791 233.158 326.889 231.509C328.801 230.739 330.493 229.388 331.092 227.345C331.616 225.559 331.355 223.659 331.294 221.831C331.182 219.945 331.533 218.06 332.316 216.341C333.212 214.571 334.402 212.968 335.835 211.598C339.013 208.463 342.664 205.847 346.654 203.847C351.195 201.539 356.097 200.025 361.148 199.371C361.46 199.331 361.463 199.823 361.152 199.863H361.152Z" fill="white"/>
<path d="M338.786 209.239C337.88 207.966 337.456 206.412 337.589 204.855C337.722 203.298 338.403 201.839 339.512 200.739C339.737 200.517 340.092 200.856 339.867 201.079C338.832 202.102 338.198 203.461 338.077 204.911C337.956 206.361 338.357 207.807 339.208 208.987C339.392 209.244 338.97 209.494 338.786 209.239V209.239Z" fill="white"/>
<path d="M331.635 220.674C334.778 221.231 338.015 220.583 340.702 218.857C340.968 218.686 341.219 219.108 340.953 219.279C338.155 221.07 334.784 221.738 331.515 221.151C331.203 221.094 331.325 220.618 331.635 220.674Z" fill="white"/>
<path d="M351.235 202.19C351.483 202.755 351.867 203.25 352.354 203.63C352.84 204.01 353.413 204.264 354.022 204.367C354.334 204.42 354.212 204.896 353.902 204.844C353.23 204.726 352.597 204.446 352.059 204.027C351.52 203.608 351.093 203.064 350.813 202.442C350.782 202.385 350.773 202.319 350.789 202.256C350.805 202.194 350.844 202.139 350.898 202.105C350.954 202.072 351.021 202.062 351.084 202.078C351.147 202.094 351.201 202.134 351.235 202.19Z" fill="white"/>
<path d="M372.582 235.635C372.386 235.608 372.19 235.581 371.992 235.556C369.357 235.207 366.698 235.071 364.041 235.152C363.836 235.155 363.628 235.161 363.423 235.17C357.024 235.434 350.73 236.884 344.861 239.446C342.526 240.468 340.272 241.666 338.119 243.031C335.146 244.915 332.072 247.194 328.748 247.963C328.402 248.047 328.051 248.109 327.698 248.15L313.965 236.25C313.947 236.207 313.926 236.167 313.909 236.124L313.339 235.674C313.445 235.596 313.557 235.517 313.663 235.439C313.724 235.394 313.788 235.351 313.85 235.305C313.892 235.276 313.934 235.246 313.97 235.217C313.984 235.207 313.998 235.198 314.009 235.191C314.045 235.162 314.082 235.139 314.115 235.113C314.739 234.671 315.366 234.233 315.998 233.798C316.001 233.795 316.001 233.795 316.007 233.794C320.789 230.437 325.953 227.659 331.39 225.519C331.553 225.457 331.719 225.392 331.888 225.336C334.337 224.425 336.856 223.715 339.419 223.215C340.824 222.946 342.242 222.747 343.667 222.621C347.349 222.303 351.058 222.566 354.659 223.401C361.836 225.066 368.401 229.01 372.289 235.162C372.389 235.319 372.485 235.474 372.582 235.635Z" fill="#CFCFDE"/>
<path d="M372.4 235.782C364.386 231.216 355.137 229.292 345.968 230.286C343.99 230.464 342.053 230.954 340.228 231.737C338.475 232.556 336.972 233.831 335.878 235.428C334.827 236.897 333.922 238.521 332.533 239.708C331.813 240.306 330.975 240.744 330.074 240.994C329.173 241.245 328.229 241.302 327.304 241.162C324.991 240.872 322.92 239.768 320.932 238.618C318.724 237.341 316.452 235.98 313.848 235.794C313.533 235.772 313.586 235.283 313.901 235.305C318.431 235.628 321.741 239.252 326.005 240.405C327.995 240.942 330.159 240.883 331.866 239.613C333.359 238.502 334.293 236.828 335.344 235.332C336.389 233.758 337.803 232.464 339.463 231.564C341.243 230.691 343.158 230.127 345.126 229.897C349.55 229.309 354.038 229.42 358.427 230.227C363.441 231.121 368.266 232.866 372.692 235.387C372.966 235.543 372.672 235.937 372.4 235.782V235.782Z" fill="white"/>
<path d="M348.901 229.792C348.944 228.23 349.54 226.733 350.582 225.57C351.625 224.407 353.047 223.653 354.595 223.442C354.908 223.401 354.987 223.886 354.673 223.927C353.232 224.121 351.908 224.824 350.939 225.909C349.97 226.994 349.42 228.39 349.39 229.845C349.383 230.161 348.894 230.106 348.901 229.792V229.792Z" fill="white"/>
<path d="M336.312 234.613C338.486 236.952 341.462 238.385 344.645 238.626C344.96 238.649 344.907 239.138 344.592 239.114C341.28 238.857 338.187 237.36 335.93 234.921C335.715 234.689 336.098 234.382 336.312 234.613H336.312Z" fill="white"/>
<path d="M363.082 231.664C362.94 232.265 362.949 232.892 363.109 233.489C363.268 234.085 363.574 234.633 363.997 235.082C364.215 235.312 363.831 235.619 363.615 235.39C363.149 234.892 362.813 234.287 362.635 233.628C362.457 232.969 362.443 232.277 362.594 231.611C362.603 231.547 362.636 231.489 362.686 231.449C362.736 231.408 362.8 231.388 362.864 231.393C362.929 231.401 362.988 231.433 363.029 231.484C363.07 231.535 363.089 231.599 363.082 231.664Z" fill="white"/>
<path d="M113.614 214.093C120.392 203.804 132.516 196.362 144.725 197.964C135.031 207.209 128.917 219.587 127.464 232.909C126.923 238.048 126.855 243.821 123.182 247.454C120.896 249.714 117.568 250.662 114.355 250.694C111.142 250.727 107.984 249.937 104.867 249.153L104.087 249.338C104.607 237.026 106.836 224.381 113.614 214.093Z" fill="#CFCFDE"/>
<path d="M144.726 198.222C135.272 202.034 127.259 208.73 121.825 217.359C120.622 219.196 119.716 221.211 119.14 223.33C118.646 225.412 118.718 227.589 119.348 229.635C119.898 231.554 120.682 233.453 120.756 235.472C120.779 236.506 120.583 237.533 120.181 238.486C119.779 239.439 119.181 240.296 118.424 241.002C116.586 242.808 114.209 243.845 111.849 244.779C109.228 245.815 106.49 246.85 104.542 248.98C104.306 249.238 103.92 248.856 104.156 248.598C107.545 244.894 112.953 244.513 116.878 241.608C118.709 240.252 120.143 238.336 120.216 235.985C120.279 233.928 119.472 231.969 118.899 230.031C118.254 228.045 118.105 225.931 118.465 223.874C118.932 221.733 119.759 219.686 120.911 217.822C123.438 213.584 126.616 209.77 130.327 206.52C134.542 202.787 139.364 199.804 144.585 197.698C144.908 197.568 145.047 198.093 144.726 198.222L144.726 198.222Z" fill="white"/>
<path d="M123.411 214.477C122.088 213.368 121.202 211.825 120.912 210.122C120.621 208.42 120.945 206.67 121.824 205.184C122.003 204.884 122.478 205.148 122.298 205.449C121.477 206.831 121.175 208.461 121.449 210.046C121.723 211.631 122.554 213.065 123.792 214.09C124.061 214.314 123.678 214.699 123.411 214.477Z" fill="white"/>
<path d="M118.941 228.699C122.458 228.42 125.74 226.824 128.134 224.231C128.371 223.974 128.757 224.355 128.52 224.612C126.025 227.306 122.605 228.959 118.945 229.242C118.596 229.268 118.594 228.725 118.941 228.699H118.941Z" fill="white"/>
<path d="M134.766 203.472C135.188 204.008 135.737 204.43 136.363 204.701C136.989 204.972 137.672 205.084 138.352 205.025C138.7 204.994 138.702 205.537 138.356 205.568C137.605 205.629 136.85 205.506 136.158 205.208C135.466 204.91 134.857 204.446 134.385 203.859C134.336 203.807 134.308 203.739 134.307 203.667C134.307 203.596 134.333 203.527 134.382 203.475C134.433 203.424 134.501 203.395 134.573 203.394C134.645 203.394 134.714 203.422 134.766 203.472H134.766Z" fill="white"/>
<path d="M166.894 233.299C166.677 233.324 166.46 233.35 166.241 233.38C163.326 233.739 160.445 234.335 157.626 235.161C157.407 235.221 157.186 235.286 156.969 235.352C150.199 237.415 143.87 240.719 138.305 245.094C136.092 246.837 134.015 248.746 132.091 250.804C129.435 253.647 126.781 256.941 123.439 258.688C123.093 258.874 122.735 259.039 122.368 259.181L104.372 250.277C104.341 250.236 104.308 250.199 104.277 250.158L103.543 249.836C103.635 249.722 103.732 249.607 103.824 249.494C103.877 249.428 103.934 249.364 103.987 249.299C104.023 249.255 104.06 249.212 104.091 249.171C104.103 249.157 104.115 249.142 104.125 249.132C104.156 249.091 104.189 249.056 104.217 249.019C104.761 248.373 105.311 247.729 105.866 247.088C105.868 247.084 105.868 247.084 105.874 247.082C110.115 242.211 114.799 237.651 120.026 233.948C120.184 233.837 120.343 233.721 120.508 233.614C122.874 231.958 125.37 230.498 127.974 229.249C129.401 228.569 130.862 227.963 132.351 227.431C136.201 226.065 140.241 225.314 144.324 225.204C152.463 224.988 160.581 227.378 166.45 232.874C166.6 233.015 166.746 233.154 166.894 233.299Z" fill="#CFCFDE"/>
<path d="M166.741 233.507C156.9 230.855 146.473 231.373 136.943 234.988C134.878 235.73 132.942 236.793 131.207 238.138C129.56 239.503 128.307 241.284 127.58 243.297C126.865 245.16 126.349 247.149 125.193 248.806C124.589 249.646 123.815 250.348 122.92 250.866C122.026 251.385 121.033 251.709 120.005 251.816C117.45 252.151 114.928 251.547 112.482 250.87C109.766 250.119 106.957 249.296 104.121 249.822C103.777 249.886 103.698 249.348 104.042 249.285C108.976 248.369 113.523 251.323 118.405 251.368C120.682 251.389 122.98 250.724 124.453 248.89C125.741 247.286 126.275 245.236 126.983 243.343C127.663 241.369 128.816 239.591 130.341 238.166C132.002 236.737 133.893 235.601 135.935 234.807C140.502 232.946 145.334 231.815 150.252 231.457C155.863 231.016 161.508 231.539 166.943 233.003C167.28 233.094 167.075 233.598 166.741 233.507Z" fill="white"/>
<path d="M139.943 233.643C139.554 231.961 139.775 230.194 140.567 228.66C141.36 227.126 142.671 225.923 144.267 225.267C144.591 225.135 144.81 225.632 144.486 225.764C142.999 226.372 141.777 227.492 141.043 228.923C140.308 230.353 140.108 231.999 140.48 233.564C140.56 233.904 140.023 233.981 139.943 233.643H139.943Z" fill="white"/>
<path d="M127.819 242.304C130.795 244.2 134.375 244.904 137.846 244.276C138.19 244.213 138.269 244.751 137.926 244.813C134.312 245.461 130.588 244.72 127.495 242.74C127.201 242.552 127.526 242.117 127.819 242.304V242.304Z" fill="white"/>
<path d="M155.63 231.697C155.645 232.379 155.829 233.047 156.166 233.641C156.502 234.235 156.981 234.735 157.559 235.098C157.856 235.283 157.53 235.718 157.235 235.534C156.599 235.13 156.071 234.577 155.697 233.922C155.324 233.267 155.117 232.53 155.093 231.776C155.085 231.706 155.104 231.634 155.147 231.577C155.189 231.52 155.252 231.481 155.322 231.468C155.393 231.458 155.465 231.476 155.523 231.519C155.581 231.562 155.619 231.626 155.63 231.697V231.697Z" fill="white"/>
<path d="M161.851 136.959C162.301 136.511 162.647 135.97 162.865 135.374C163.083 134.778 163.168 134.141 163.114 133.509C163.059 132.876 162.867 132.263 162.551 131.713C162.234 131.163 161.801 130.689 161.281 130.325L168.364 96.0164L160.722 98.4291L155.023 131.62C154.47 132.534 154.27 133.619 154.462 134.671C154.655 135.722 155.226 136.666 156.067 137.324C156.909 137.983 157.962 138.309 159.028 138.242C160.094 138.174 161.099 137.718 161.851 136.959Z" fill="#FFB6B6"/>
<path d="M178.224 45.2518L173.49 41.6756C173.49 41.6756 169.314 41.3797 168.574 48.9166C167.834 56.4535 163.204 85.3799 163.204 85.3799L155.96 118.957L165.987 121.159L173.746 84.9241L181.512 59.9253L178.224 45.2518Z" fill="#CFCFDE"/>
<path d="M174.617 107.381L151.909 89.7109C151.556 89.4351 151.326 89.0301 151.27 88.5847C151.214 88.1394 151.337 87.6902 151.612 87.3356L167.062 67.4498C167.338 67.0958 167.743 66.8657 168.188 66.81C168.633 66.7543 169.082 66.8775 169.436 67.1525L192.144 84.8229C192.497 85.0987 192.727 85.5037 192.783 85.9491C192.839 86.3944 192.716 86.8436 192.441 87.1982L176.991 107.084C176.715 107.438 176.31 107.668 175.865 107.724C175.42 107.78 174.971 107.656 174.617 107.381Z" fill="#2F2E41"/>
<path d="M174.492 105.553L153.711 89.3812C153.397 89.1363 153.192 88.7767 153.143 88.3813C153.094 87.9859 153.203 87.587 153.447 87.2722L167.453 69.2447C167.698 68.9305 168.057 68.7262 168.452 68.6767C168.847 68.6272 169.246 68.7366 169.561 68.9808L190.342 85.1522C190.656 85.3971 190.86 85.7567 190.91 86.1521C190.959 86.5475 190.85 86.9463 190.606 87.2612L176.6 105.289C176.355 105.603 175.995 105.807 175.6 105.857C175.205 105.906 174.807 105.797 174.492 105.553Z" fill="white"/>
<path d="M156.435 88.9226C156.357 88.8614 156.306 88.7715 156.293 88.6727C156.281 88.5738 156.308 88.4741 156.369 88.3954L163.435 79.3011C163.496 79.2224 163.586 79.1713 163.685 79.1589C163.734 79.1528 163.783 79.1564 163.831 79.1694C163.879 79.1825 163.923 79.2048 163.962 79.2351C164.001 79.2654 164.033 79.3031 164.058 79.3459C164.082 79.3888 164.098 79.4361 164.104 79.4851C164.11 79.534 164.107 79.5837 164.094 79.6313C164.08 79.6788 164.058 79.7234 164.028 79.7623L156.962 88.8567C156.901 88.9352 156.811 88.9863 156.712 88.9987C156.614 89.011 156.514 88.9837 156.435 88.9226Z" fill="white"/>
<path d="M157.606 89.834C157.528 89.7728 157.477 89.6829 157.464 89.5841C157.452 89.4852 157.479 89.3855 157.54 89.3068L164.606 80.2125C164.667 80.1338 164.757 80.0827 164.856 80.0703C164.955 80.0579 165.054 80.0853 165.133 80.1465C165.212 80.2077 165.263 80.2976 165.275 80.3965C165.287 80.4953 165.26 80.5951 165.199 80.6737L158.133 89.7681C158.072 89.8466 157.982 89.8977 157.883 89.9101C157.785 89.9224 157.685 89.8951 157.606 89.834Z" fill="white"/>
<path d="M162.78 85.593C162.702 85.5318 162.651 85.4419 162.638 85.343C162.626 85.2442 162.653 85.1445 162.714 85.0658L165.777 81.1236C165.807 81.0846 165.845 81.0519 165.888 81.0274C165.931 81.0029 165.978 80.9871 166.027 80.981C166.076 80.9748 166.126 80.9783 166.173 80.9914C166.221 81.0045 166.265 81.0268 166.304 81.0571C166.343 81.0875 166.376 81.1252 166.4 81.1681C166.425 81.2111 166.44 81.2584 166.447 81.3074C166.453 81.3564 166.449 81.4062 166.436 81.4538C166.423 81.5014 166.4 81.5459 166.37 81.5849L163.307 85.527C163.246 85.6056 163.156 85.6567 163.057 85.669C162.959 85.6814 162.859 85.6541 162.78 85.593Z" fill="white"/>
<path d="M164.359 93.3292C164.281 93.2679 164.23 93.178 164.217 93.0792C164.205 92.9804 164.232 92.8807 164.293 92.802L175.448 78.4449C175.478 78.4059 175.516 78.3733 175.559 78.3489C175.602 78.3245 175.649 78.3088 175.698 78.3027C175.747 78.2966 175.796 78.3002 175.844 78.3132C175.891 78.3263 175.936 78.3486 175.975 78.3789C176.014 78.4092 176.046 78.4469 176.071 78.4897C176.095 78.5326 176.111 78.5799 176.117 78.6288C176.123 78.6778 176.119 78.7275 176.106 78.7751C176.093 78.8226 176.071 78.8672 176.041 78.9061L164.886 93.2632C164.825 93.3418 164.735 93.3928 164.636 93.4052C164.537 93.4176 164.438 93.3902 164.359 93.3292Z" fill="white"/>
<path d="M165.53 94.2404C165.452 94.1792 165.401 94.0893 165.388 93.9904C165.376 93.8916 165.403 93.7919 165.464 93.7131L176.619 79.356C176.649 79.3171 176.687 79.2845 176.73 79.2601C176.773 79.2357 176.82 79.22 176.869 79.2138C176.918 79.2077 176.967 79.2113 177.015 79.2244C177.062 79.2374 177.107 79.2598 177.146 79.29C177.185 79.3203 177.217 79.358 177.242 79.4009C177.266 79.4438 177.282 79.491 177.288 79.54C177.294 79.589 177.29 79.6387 177.277 79.6862C177.264 79.7338 177.242 79.7783 177.212 79.8173L166.057 94.1744C165.996 94.253 165.906 94.304 165.807 94.3164C165.709 94.3288 165.609 94.3015 165.53 94.2404Z" fill="white"/>
<path d="M168.189 96.3089C168.11 96.2477 168.059 96.1578 168.047 96.059C168.034 95.9601 168.062 95.8604 168.123 95.7817L179.278 81.4246C179.308 81.3857 179.345 81.3531 179.388 81.3287C179.431 81.3043 179.478 81.2886 179.527 81.2824C179.576 81.2763 179.626 81.2799 179.673 81.293C179.721 81.306 179.765 81.3284 179.804 81.3587C179.843 81.3889 179.876 81.4266 179.9 81.4695C179.925 81.5124 179.94 81.5596 179.946 81.6086C179.953 81.6576 179.949 81.7072 179.936 81.7548C179.923 81.8024 179.901 81.8469 179.87 81.8859L168.716 96.2429C168.654 96.3215 168.565 96.3726 168.466 96.385C168.367 96.3973 168.267 96.37 168.189 96.3089Z" fill="white"/>
<path d="M169.36 97.2204C169.281 97.1592 169.23 97.0693 169.218 96.9704C169.205 96.8716 169.233 96.7718 169.294 96.6931L180.448 82.336C180.479 82.2971 180.516 82.2645 180.559 82.2401C180.602 82.2157 180.649 82.2 180.698 82.1938C180.747 82.1877 180.797 82.1913 180.844 82.2043C180.892 82.2174 180.936 82.2397 180.975 82.27C181.014 82.3003 181.047 82.338 181.071 82.3809C181.095 82.4238 181.111 82.471 181.117 82.52C181.123 82.5689 181.12 82.6186 181.107 82.6662C181.094 82.7138 181.071 82.7583 181.041 82.7973L169.886 97.1544C169.825 97.233 169.735 97.284 169.637 97.2964C169.538 97.3088 169.438 97.2814 169.36 97.2204Z" fill="white"/>
<path d="M172.018 99.2889C171.94 99.2277 171.889 99.1378 171.876 99.0389C171.864 98.9401 171.891 98.8404 171.952 98.7617L183.107 84.4046C183.137 84.3657 183.175 84.3331 183.218 84.3087C183.26 84.2843 183.308 84.2686 183.357 84.2624C183.406 84.2563 183.455 84.2599 183.503 84.273C183.55 84.286 183.595 84.3083 183.634 84.3386C183.673 84.3689 183.705 84.4066 183.73 84.4495C183.754 84.4923 183.77 84.5396 183.776 84.5886C183.782 84.6375 183.778 84.6872 183.765 84.7348C183.752 84.7824 183.73 84.8269 183.7 84.8659L172.545 99.2229C172.484 99.3015 172.394 99.3526 172.295 99.3649C172.196 99.3773 172.097 99.35 172.018 99.2889Z" fill="white"/>
<path d="M173.189 100.2C173.111 100.139 173.059 100.049 173.047 99.9504C173.035 99.8515 173.062 99.7518 173.123 99.6731L184.278 85.316C184.339 85.2377 184.429 85.1869 184.527 85.1747C184.626 85.1625 184.725 85.1899 184.804 85.251C184.882 85.312 184.933 85.4017 184.946 85.5004C184.958 85.599 184.931 85.6986 184.871 85.7773L173.716 100.134C173.655 100.213 173.565 100.264 173.466 100.276C173.367 100.289 173.268 100.261 173.189 100.2Z" fill="white"/>
<path d="M154.546 116.874C154.631 116.874 154.7 116.805 154.7 116.719C154.7 116.634 154.631 116.565 154.546 116.565C154.461 116.565 154.392 116.634 154.392 116.719C154.392 116.805 154.461 116.874 154.546 116.874Z" fill="white"/>
<path d="M177.007 10.5805C176.465 13.4957 175.575 16.3354 174.359 19.039C167.39 33.7919 187.235 28.9832 194.326 28.9832C202.08 28.9832 209.499 33.0637 208.366 14.9328C207.882 7.18805 202.08 0.882324 194.326 0.882324C187.703 0.882324 178.392 3.82842 177.007 10.5805Z" fill="#2F2E41"/>
<path d="M201.554 226.952H194.948L191.804 201.451H201.554V226.952Z" fill="#FFB6B6"/>
<path d="M205.041 238.407H200.303L199.458 233.931L197.292 238.407H184.727C184.124 238.407 183.538 238.215 183.053 237.858C182.567 237.5 182.209 236.997 182.03 236.422C181.851 235.846 181.86 235.229 182.056 234.659C182.253 234.089 182.626 233.597 183.122 233.255L193.156 226.319V221.794L203.71 222.424L205.041 238.407Z" fill="#2F2E41"/>
<path d="M240.802 218.609L235.5 222.554L217.773 203.968L225.597 198.145L240.802 218.609Z" fill="#FFB6B6"/>
<path d="M250.43 225.719L246.628 228.548L243.281 225.461L244.212 230.346L234.129 237.85C233.645 238.21 233.06 238.405 232.458 238.408C231.855 238.411 231.268 238.222 230.781 237.867C230.294 237.512 229.933 237.011 229.751 236.437C229.569 235.862 229.575 235.244 229.768 234.673L233.685 223.116L230.987 219.484L239.832 213.688L250.43 225.719Z" fill="#2F2E41"/>
<path d="M179.918 109.588L211.277 104.7L205.041 85.9243H179.918V109.588Z" fill="#FFB6B6"/>
<path d="M209.245 95.3806C209.245 95.3806 221.78 106.218 215.997 137.113L208.936 167.385L228.172 200.808L218.391 206.147L194.686 173.175L183.839 147.71L178.101 103.082L209.245 95.3806Z" fill="#2F2E41"/>
<path d="M189.818 154.967L189.063 166.652L191.27 201.253L202.227 205.029L204.302 169.576L189.818 154.967Z" fill="#2F2E41"/>
<path d="M186.449 32.8721L198.571 33.3454L203.402 41.3711L214.425 43.5245L207.845 76.8389L209.055 95.801L198.079 95.7341C190.17 95.6858 182.52 98.5616 176.599 103.81L176.927 79.1957L172.207 60.8214L173.268 41.5547L182.135 40.4455L186.449 32.8721Z" fill="#CFCFDE"/>
<path d="M193.165 28.9797C199.466 28.9797 204.573 23.8678 204.573 17.5621C204.573 11.2563 199.466 6.14453 193.165 6.14453C186.864 6.14453 181.756 11.2563 181.756 17.5621C181.756 23.8678 186.864 28.9797 193.165 28.9797Z" fill="#FFB6B6"/>
<path d="M185.417 5.92349C187.416 4.70378 189.706 4.04399 192.047 4.0131C194.388 3.98221 196.695 4.58136 198.725 5.7479C200.756 6.91444 202.436 8.60552 203.59 10.6443C204.744 12.6831 205.33 14.9948 205.285 17.3375C199.472 18.7982 193.365 19.916 187.165 17.6869L185.701 14.101L184.838 17.6896C182.95 18.4618 181.057 19.1153 179.165 17.6821C179.087 15.3459 179.624 13.0304 180.721 10.9669C181.818 8.90347 183.438 7.16437 185.417 5.92349Z" fill="#2F2E41"/>
<path d="M212.314 118.82L213.852 132.788C213.959 133.137 214.175 133.442 214.468 133.658C214.761 133.875 215.116 133.992 215.481 133.992H222.57C222.934 133.992 223.289 133.875 223.582 133.658C223.875 133.442 224.091 133.137 224.198 132.788L225.472 122.082C225.84 122.263 226.245 122.353 226.654 122.346C227.064 122.339 227.466 122.235 227.827 122.043C228.189 121.85 228.499 121.574 228.733 121.238C228.968 120.902 229.119 120.515 229.174 120.109C229.23 119.703 229.188 119.29 229.053 118.903C228.918 118.516 228.693 118.167 228.397 117.884C228.101 117.601 227.741 117.393 227.349 117.276C226.956 117.159 226.542 117.137 226.139 117.212C225.98 117.024 225.782 116.873 225.559 116.769C225.336 116.666 225.093 116.613 224.847 116.614H213.943C213.676 116.614 213.413 116.676 213.175 116.796C212.937 116.917 212.731 117.091 212.572 117.306C212.414 117.52 212.308 117.769 212.263 118.032C212.218 118.295 212.236 118.565 212.314 118.82ZM225.695 121.358L226.475 118.82C226.565 118.527 226.574 118.215 226.501 117.918C226.534 117.916 226.565 117.908 226.599 117.908V121.605Cnan nan nan nan 226.599 121.605C226.281 121.603 225.97 121.518 225.695 121.358Z" fill="#6C63FF"/>
<path d="M223.004 134.001C222.557 133.551 222.214 133.008 221.998 132.411C221.783 131.814 221.702 131.177 221.759 130.544C221.817 129.912 222.012 129.3 222.331 128.752C222.651 128.203 223.087 127.731 223.608 127.37L216.699 93.0259L224.329 95.4775L229.859 128.697C230.408 129.613 230.602 130.7 230.405 131.75C230.207 132.801 229.631 133.742 228.786 134.396C227.941 135.05 226.886 135.371 225.82 135.298C224.755 135.225 223.753 134.764 223.004 134.001Z" fill="#FFB6B6"/>
<path d="M209.691 47.1007L214.425 43.5245C214.425 43.5245 218.601 43.2286 219.34 50.7654C220.08 58.3023 224.711 87.2288 224.711 87.2288L231.955 120.806L221.927 123.008L214.168 86.773L206.402 61.7742L209.691 47.1007Z" fill="#CFCFDE"/>
<path d="M168.834 78.3639C170.314 78.3639 171.513 77.1632 171.513 75.6821C171.513 74.2009 170.314 73.0002 168.834 73.0002C167.354 73.0002 166.154 74.2009 166.154 75.6821C166.154 77.1632 167.354 78.3639 168.834 78.3639Z" fill="#6C63FF"/>
<path d="M83.3822 258.063L88.9668 258.063L91.6238 236.506L83.3813 236.506L83.3822 258.063Z" fill="#FFB6B6"/>
<path d="M81.9575 256.238L83.5294 256.238L89.6663 253.741L92.9555 256.238H92.956C94.8148 256.238 96.5974 256.977 97.9118 258.293C99.2262 259.608 99.9647 261.392 99.9648 263.252V263.48L81.9579 263.481L81.9575 256.238Z" fill="#2F2E41"/>
<path d="M105.023 254.541L110.471 255.772L117.807 235.33L109.767 233.513L105.023 254.541Z" fill="#FFB6B6"/>
<path d="M104.036 252.447L105.569 252.794L112.105 251.71L114.764 254.872L114.764 254.872C116.577 255.281 118.153 256.395 119.146 257.968C120.138 259.541 120.466 261.444 120.057 263.259L120.007 263.481L102.442 259.512L104.036 252.447Z" fill="#2F2E41"/>
<path d="M73.1584 147.176L78.2084 203.799C78.2084 203.799 76.3163 237.794 82.422 249.756H91.2769L95.6611 200.695L96.2117 167.765L115.196 195.547L103.104 248.954L114.003 249.929L133.624 191.97L112.067 137.56L73.1584 147.176Z" fill="#2F2E41"/>
<path d="M78.4474 57.0038C85.6402 57.0038 91.471 51.1684 91.471 43.9701C91.471 36.7717 85.6402 30.9363 78.4474 30.9363C71.2547 30.9363 65.4238 36.7717 65.4238 43.9701C65.4238 51.1684 71.2547 57.0038 78.4474 57.0038Z" fill="#FFB6B6"/>
<path d="M101.342 69.4245L90.6575 64.8365L85.4563 59.3154L72.4629 61.4126L69.0154 67.3283L57.8555 77.7134L70.9306 136.879L70.5348 149.802C70.5348 149.802 78.9033 153.572 115.196 144.891C115.631 144.787 114.72 144.331 114.72 144.331L101.342 69.4245Z" fill="#2F2E41"/>
<path d="M64.9048 51.3659C64.8141 51.242 64.7242 51.117 64.6352 50.991C64.5994 51.0666 64.571 51.1448 64.53 51.2187L64.9048 51.3659Z" fill="#2F2E41"/>
<path d="M91.4026 34.4364C90.532 32.5385 88.9798 31.0378 87.0545 30.2326C85.1461 29.4623 83.0133 29.4641 81.1063 30.2378C79.3845 29.1492 77.4715 28.2861 75.4568 28.1792C73.4421 28.0723 71.312 28.8203 70.0704 30.4669C69.7932 30.9016 69.4783 31.311 69.1294 31.6904C68.1314 32.6154 66.6147 32.4819 65.2882 32.2928C65.8831 32.8031 66.4783 33.3135 67.0735 33.8238C66.3533 34.0121 65.6331 34.2004 64.9127 34.3887C65.7532 34.8988 66.5937 35.409 67.4341 35.9192C64.9941 37.3848 63.8851 40.5838 64.1781 43.4891C64.4552 46.2398 65.7822 48.7551 67.3685 50.9908C68.0012 49.6544 67.8649 48.0553 67.8545 46.5502C67.8436 44.9598 68.1247 43.1539 69.3981 42.2651C70.257 41.6655 71.3616 41.6388 72.3974 41.6444C77.6223 41.6731 82.8412 41.9992 88.0291 42.6211C88.7331 42.6516 89.4194 42.8508 90.0304 43.202C91.1777 43.9853 91.4012 45.6018 91.5164 47.0199C92.1226 44.6783 92.4192 42.2674 92.3988 39.8486C92.4498 37.9946 92.1104 36.1506 91.4026 34.4364Z" fill="#2F2E41"/>
<path d="M95.4572 186.869C106.778 186.869 115.956 177.685 115.956 166.355C115.956 155.025 106.778 145.841 95.4572 145.841C84.1364 145.841 74.959 155.025 74.959 166.355C74.959 177.685 84.1364 186.869 95.4572 186.869Z" fill="white"/>
<path d="M95.4572 145.385C94.4035 145.385 93.3513 145.464 92.3095 145.622C91.7766 145.7 91.2575 145.8 90.7425 145.923C86.961 146.795 83.496 148.702 80.7341 151.43C77.9722 154.159 76.0222 157.601 75.1014 161.374C74.1807 165.147 74.3255 169.102 75.5197 172.797C76.714 176.492 78.9106 179.783 81.8646 182.302C82.2154 182.598 82.5706 182.885 82.9396 183.159C85.5989 185.143 88.6911 186.467 91.9616 187.022C95.2321 187.576 98.5875 187.346 101.752 186.349C104.916 185.352 107.798 183.618 110.161 181.288C112.525 178.959 114.302 176.101 115.346 172.95C116.39 169.799 116.672 166.445 116.168 163.164C115.663 159.883 114.388 156.768 112.446 154.077C110.504 151.386 107.951 149.194 104.998 147.683C102.044 146.172 98.7743 145.384 95.4572 145.385V145.385ZM95.4572 186.414C91.1955 186.418 87.0445 185.055 83.6138 182.525C83.2403 182.251 82.8804 181.969 82.5297 181.668C79.6517 179.238 77.5162 176.046 76.3682 172.457C75.2202 168.868 75.1062 165.028 76.0392 161.378C76.9722 157.727 78.9144 154.413 81.6432 151.817C84.372 149.221 87.7767 147.446 91.467 146.698C91.977 146.593 92.4872 146.511 93.0066 146.447C93.8196 146.346 94.638 146.296 95.4572 146.297V186.414Cnan nan nan nan 95.4572 186.414Z" fill="#2F2E41"/>
<path d="M85.4031 162.252H105.511C106.248 162.252 106.845 161.655 106.845 160.917V160.852C106.845 160.115 106.248 159.517 105.511 159.517H85.4031C84.6665 159.517 84.0694 160.115 84.0694 160.852V160.917C84.0694 161.655 84.6665 162.252 85.4031 162.252Z" fill="#6C63FF"/>
<path d="M85.4031 167.723H105.511C106.248 167.723 106.845 167.125 106.845 166.388V166.322C106.845 165.585 106.248 164.987 105.511 164.987H85.4031C84.6665 164.987 84.0694 165.585 84.0694 166.322V166.388C84.0694 167.125 84.6665 167.723 85.4031 167.723Z" fill="#6C63FF"/>
<path d="M85.4031 173.193H105.511C106.248 173.193 106.845 172.596 106.845 171.859V171.793C106.845 171.056 106.248 170.458 105.511 170.458H85.4031C84.6665 170.458 84.0694 171.056 84.0694 171.793V171.859C84.0694 172.596 84.6665 173.193 85.4031 173.193Z" fill="#6C63FF"/>
<path d="M324.788 257.368L318.932 257.367L316.146 234.763L324.789 234.763L324.788 257.368Z" fill="#9E616A"/>
<path d="M297.084 257.368L291.229 257.367L288.443 234.763L297.086 234.763L297.084 257.368Z" fill="#9E616A"/>
<path d="M297.291 263.481L279.284 263.48V263.252C279.284 261.392 280.022 259.608 281.337 258.293C282.651 256.977 284.434 256.238 286.292 256.238H286.293L289.582 253.741L295.719 256.238L297.291 256.238L297.291 263.481Z" fill="#2F2E41"/>
<path d="M325.745 263.481L307.738 263.48V263.252C307.738 261.392 308.477 259.608 309.791 258.293C311.105 256.977 312.888 256.238 314.747 256.238H314.747L318.036 253.741L324.173 256.238L325.745 256.238L325.745 263.481Z" fill="#2F2E41"/>
<path d="M291.341 123.589L282.441 177.821L284.863 185.902L281.685 191.626L286.352 241.891L284.458 246.065L289.751 249.332H300.522L301.093 203.826L303.754 197.145V193.463L309.17 165.715L310.167 204.575L311.743 211.266L310.419 216.031L312.149 219.369L316.742 250.324H328.819L327.885 243.122C328.937 242.589 329.783 241.721 330.288 240.655C330.793 239.589 330.931 238.385 330.678 237.232L329.985 234.076L331.561 224.742L334.431 172.673L333.622 130.66L319.493 119.848L291.341 123.589Z" fill="#2F2E41"/>
<path d="M311.743 53.9488C317.94 53.9488 322.964 48.921 322.964 42.7189C322.964 36.5168 317.94 31.489 311.743 31.489C305.545 31.489 300.521 36.5168 300.521 42.7189C300.521 48.921 305.545 53.9488 311.743 53.9488Z" fill="#9E616A"/>
<path d="M287.226 145.11C287.714 144.605 288.086 143.999 288.315 143.334C288.544 142.67 288.625 141.964 288.551 141.265C288.478 140.566 288.253 139.891 287.891 139.289C287.529 138.687 287.039 138.172 286.457 137.779L290.82 121.265L282.414 124.095L279.559 139.343C278.965 140.366 278.767 141.572 279.002 142.731C279.236 143.891 279.888 144.924 280.833 145.635C281.778 146.345 282.951 146.684 284.129 146.588C285.308 146.491 286.409 145.965 287.226 145.11H287.226Z" fill="#9E616A"/>
<path d="M291.818 65.8225L290.014 65.4478L288.475 66.3005C288.475 66.3005 284.176 72.0367 284.176 77.2948C284.176 82.5529 278.922 133.222 278.922 133.222L288.475 137.524L296.117 97.8493L291.818 65.8225Z" fill="#CFCFDE"/>
<path d="M321.569 34.4852C321.569 34.4852 324.504 28.8703 318.047 28.3599C318.047 28.3599 312.543 23.3627 306.932 27.4463C306.932 27.4463 303.872 27.4463 302.199 30.9121C302.199 30.9121 299.792 29.9986 299.263 32.4434C299.263 32.4434 297.502 37.548 299.263 42.142C301.024 46.736 301.609 47.2465 301.609 47.2465C301.609 47.2465 298.715 37.6148 305.759 37.1044C312.804 36.5939 320.686 32.1882 321.273 37.8032C321.861 43.4181 322.744 44.8016 322.744 44.8016C322.744 44.8016 328.32 36.7823 321.569 34.4852Z" fill="#2F2E41"/>
<path d="M362.56 191.625C361.713 191.627 360.895 191.315 360.264 190.749L326.305 160.497C325.621 159.886 325.207 159.028 325.154 158.112C325.1 157.195 325.412 156.295 326.021 155.609L347.776 131.152C348.386 130.467 349.243 130.052 350.159 129.999C351.075 129.945 351.974 130.258 352.66 130.867L386.619 161.12C387.304 161.731 387.719 162.588 387.772 163.505C387.825 164.421 387.512 165.322 386.902 166.007L365.148 190.465C364.847 190.806 364.481 191.083 364.072 191.281C363.663 191.479 363.218 191.594 362.765 191.619C362.696 191.624 362.628 191.625 362.56 191.625Z" fill="white"/>
<path d="M362.559 191.848C361.658 191.849 360.788 191.517 360.116 190.915L326.157 160.663C325.429 160.013 324.988 159.1 324.932 158.125C324.875 157.149 325.207 156.192 325.855 155.461L347.61 131.003C348.26 130.275 349.172 129.834 350.146 129.777C351.12 129.72 352.078 130.053 352.807 130.701L386.766 160.954C387.496 161.604 387.937 162.517 387.994 163.492C388.05 164.467 387.717 165.426 387.068 166.155L365.314 190.613C364.993 190.975 364.604 191.271 364.169 191.482C363.733 191.693 363.261 191.815 362.778 191.842C362.705 191.846 362.632 191.848 362.559 191.848ZM350.361 130.66C349.967 130.659 349.577 130.742 349.217 130.903C348.857 131.065 348.536 131.3 348.274 131.595L326.52 156.053C326.028 156.607 325.776 157.333 325.819 158.073C325.862 158.813 326.196 159.505 326.749 159.998L360.708 190.251C360.981 190.495 361.301 190.682 361.647 190.803C361.993 190.923 362.36 190.975 362.726 190.953C363.092 190.932 363.45 190.839 363.781 190.679C364.111 190.519 364.406 190.295 364.65 190.021L386.404 165.564C386.896 165.01 387.149 164.283 387.106 163.544C387.063 162.804 386.728 162.111 386.175 161.619L352.216 131.366C351.706 130.91 351.045 130.659 350.361 130.66H350.361Z" fill="#2F2E41"/>
<path d="M374.874 168.463C374.507 168.463 374.153 168.329 373.879 168.084L347.223 144.337C347.075 144.207 346.955 144.048 346.869 143.871C346.783 143.694 346.732 143.501 346.72 143.304C346.709 143.108 346.736 142.91 346.8 142.724C346.865 142.538 346.966 142.366 347.097 142.219C347.228 142.072 347.386 141.952 347.564 141.866C347.741 141.78 347.934 141.731 348.13 141.719C348.327 141.708 348.524 141.736 348.71 141.801C348.896 141.867 349.067 141.968 349.213 142.099L375.87 165.847C376.097 166.049 376.257 166.315 376.329 166.61C376.401 166.905 376.382 167.215 376.274 167.499C376.165 167.782 375.974 168.027 375.724 168.199C375.474 168.371 375.177 168.463 374.874 168.463Z" fill="#6C63FF"/>
<path d="M369.789 174.179C369.422 174.179 369.068 174.045 368.795 173.8L342.138 150.053C341.992 149.922 341.872 149.764 341.786 149.587C341.701 149.41 341.651 149.217 341.639 149.021C341.628 148.825 341.655 148.628 341.72 148.442C341.785 148.256 341.885 148.085 342.016 147.938C342.147 147.791 342.305 147.672 342.482 147.586C342.659 147.5 342.851 147.45 343.047 147.439C343.243 147.428 343.44 147.455 343.625 147.52C343.811 147.584 343.982 147.685 344.129 147.816L370.785 171.563C371.012 171.765 371.172 172.031 371.244 172.326C371.316 172.621 371.297 172.931 371.189 173.215C371.081 173.499 370.889 173.743 370.639 173.915C370.389 174.087 370.093 174.179 369.789 174.179H369.789Z" fill="#6C63FF"/>
<path d="M364.705 179.896C364.338 179.896 363.984 179.762 363.71 179.517L337.054 155.77C336.906 155.639 336.787 155.481 336.701 155.304C336.615 155.127 336.565 154.934 336.553 154.738C336.542 154.541 336.569 154.344 336.634 154.158C336.698 153.972 336.799 153.801 336.93 153.654C337.06 153.507 337.219 153.387 337.396 153.302C337.573 153.216 337.765 153.166 337.962 153.155C338.158 153.143 338.355 153.171 338.541 153.236C338.726 153.3 338.897 153.401 339.044 153.532L365.701 177.28C365.927 177.481 366.087 177.748 366.16 178.043C366.232 178.338 366.212 178.648 366.104 178.931C365.996 179.215 365.805 179.46 365.555 179.632C365.305 179.804 365.008 179.896 364.705 179.896H364.705Z" fill="#6C63FF"/>
<path d="M334.221 146.084C333.879 145.47 333.676 144.789 333.625 144.088C333.574 143.387 333.678 142.684 333.929 142.027C334.179 141.371 334.57 140.777 335.075 140.289C335.58 139.8 336.185 139.428 336.849 139.199L336.878 122.117L344.274 127.016L343.113 142.486C343.423 143.628 343.305 144.844 342.78 145.904C342.255 146.964 341.36 147.794 340.264 148.237C339.168 148.681 337.947 148.707 336.833 148.31C335.72 147.913 334.79 147.121 334.221 146.084H334.221Z" fill="#9E616A"/>
<path d="M334.905 70.5033L338.209 67.3159L340.636 69.0693C340.636 69.0693 343.024 71.9373 344.935 80.5415C346.846 89.1458 344.935 136.469 344.935 136.469L334.427 135.035L335.86 110.178L331.561 89.1457L334.905 70.5033Z" fill="#CFCFDE"/>
<path d="M339.784 68.0935L328.651 62.7717L321.093 55.7558L307.311 55.6526L302.865 61.4369L291.127 65.4271L293.084 105.931L291.75 109.046C291.75 109.046 292.679 109.886 293.104 110.356C293.528 110.826 292.517 114.759 292.517 114.759L291.947 119.039L293.528 120.17L291.472 122.6L290.962 126.431C290.962 126.431 326.848 117.504 333.628 132.292C333.987 133.073 333.104 125.437 333.104 125.437L332.222 119.848L333.097 114.83L334.431 113.496L332.194 111.257L333.628 100.634L339.784 68.0935Z" fill="#2F2E41"/>
<path d="M87.3233 157.888C87.5995 157.186 87.7186 156.432 87.6722 155.679C87.6257 154.926 87.4149 154.192 87.0544 153.53C86.694 152.867 86.1927 152.291 85.5859 151.843C84.9792 151.396 84.2817 151.086 83.5426 150.937L81.0696 132.764L73.8994 139.037L77.347 155.333C77.1794 156.592 77.4791 157.869 78.1894 158.922C78.8997 159.975 79.9712 160.73 81.2009 161.045C82.4306 161.36 83.7331 161.213 84.8615 160.631C85.9898 160.049 86.8658 159.073 87.3233 157.888V157.888Z" fill="#FFB6B6"/>
<path d="M59.2315 77.3811L57.288 77.7537L56.1132 79.2338C56.1132 79.2338 54.2127 86.694 56.3777 91.9074C58.5426 97.1209 74.1955 149.526 74.1955 149.526L85.4384 149.853L76.6802 107.363L59.2315 77.3811Z" fill="#2F2E41"/>
<path d="M103.554 155.223C103.036 154.674 102.645 154.019 102.407 153.303C102.17 152.587 102.092 151.827 102.18 151.078C102.267 150.328 102.518 149.607 102.914 148.965C103.31 148.323 103.842 147.776 104.473 147.362L99.9966 129.577L108.987 132.721L111.859 149.129C112.484 150.235 112.681 151.531 112.415 152.773C112.148 154.015 111.435 155.116 110.411 155.867C109.388 156.618 108.124 156.968 106.86 156.849C105.597 156.73 104.42 156.151 103.554 155.223Z" fill="#FFB6B6"/>
<path d="M99.6262 70.0382L101.568 69.6587L103.21 70.5938C103.21 70.5938 107.753 76.8068 107.686 82.4521C107.62 88.0975 112.62 142.565 112.62 142.565L102.309 147.063L94.606 104.369L99.6262 70.0382Z" fill="#2F2E41"/>
</g>
<defs>
<clipPath id="clip0_172_5793">
<rect width="388" height="262.598" fill="white" transform="translate(0 0.882324)"/>
</clipPath>
</defs>
</svg>
