<svg width="120" height="32" viewBox="0 0 120 32" fill="none" xmlns="http://www.w3.org/2000/svg">
<rect width="32" height="32" rx="1" fill="white"/>
<path fill-rule="evenodd" clip-rule="evenodd" d="M20.0152 15.7922C20.2811 15.1349 19.7973 14.4173 19.0882 14.4173H18.9046C18.3523 14.4173 17.9046 13.9696 17.9046 13.4173V12.3074C17.9046 11.7251 18.3825 11.7799 18.9713 11.7799H19.038C19.5902 11.7799 20.038 11.3322 20.038 10.7799V10.1426C20.038 9.59029 19.5902 9.14258 19.038 9.14258H17.9046C17.0559 9.14258 16.242 9.47602 15.6419 10.0695C15.0418 10.6631 14.7046 11.468 14.7046 12.3074V13.4173C14.7046 13.9696 14.2569 14.4173 13.7046 14.4173H13.5713C13.019 14.4173 12.5713 14.865 12.5713 15.4173V16.0547C12.5713 16.6069 13.019 17.0547 13.5713 17.0547H13.7046C14.2569 17.0547 14.7046 17.5024 14.7046 18.0547V21.8569C14.7046 22.4091 15.1523 22.8569 15.7046 22.8569H16.9046C17.4569 22.8569 17.9046 22.4091 17.9046 21.8569V18.0103C17.9046 17.4825 18.3325 17.0547 18.8603 17.0547C19.2497 17.0547 19.6002 16.8184 19.7462 16.4573L20.0152 15.7922Z" fill="#9893A3"/>
<rect x="44" width="32" height="32" rx="1" fill="white"/>
<g clip-path="url(#clip0_172_5599)">
<path d="M68.2415 11.1897C67.8094 11.8323 67.2794 12.3801 66.6513 12.8332C66.6575 12.9546 66.6606 13.092 66.6606 13.2451C66.6606 14.096 66.5365 14.948 66.2884 15.8009C66.0403 16.6539 65.6613 17.4703 65.1514 18.2503C64.6415 19.0302 64.0342 19.7211 63.3293 20.3231C62.6245 20.925 61.7772 21.405 60.7876 21.763C59.7979 22.121 58.7372 22.3 57.6056 22.3C55.8395 22.3 54.213 21.8232 52.7263 20.8696C52.9902 20.8989 53.2433 20.9136 53.4856 20.9136C54.961 20.9136 56.2788 20.4592 57.439 19.5503C56.7511 19.5376 56.135 19.3259 55.5907 18.9149C55.0464 18.504 54.6719 17.9789 54.4671 17.3397C54.6695 17.3783 54.8693 17.3975 55.0665 17.3975C55.3504 17.3975 55.6297 17.3605 55.9044 17.2865C55.1703 17.1395 54.5612 16.7738 54.0773 16.1895C53.5934 15.6052 53.3514 14.9309 53.3514 14.1664V14.127C53.802 14.3765 54.2827 14.5092 54.7934 14.5252C54.3585 14.2352 54.0137 13.8571 53.7589 13.3909C53.5042 12.9247 53.3768 12.4201 53.3768 11.8772C53.3768 11.3047 53.5203 10.7715 53.8072 10.2778C54.6056 11.2575 55.573 12.0406 56.7095 12.6269C57.8459 13.2133 59.0651 13.5389 60.3671 13.6038C60.3115 13.3724 60.2837 13.1309 60.2836 12.8794C60.2836 12.0009 60.5945 11.2509 61.2162 10.6293C61.8379 10.0076 62.5879 9.69678 63.4664 9.69678C64.386 9.69678 65.1607 10.0316 65.7903 10.7014C66.5097 10.5589 67.1832 10.3012 67.811 9.9282C67.5691 10.6893 67.1031 11.2765 66.4129 11.6897C67.0473 11.6143 67.6568 11.4476 68.2414 11.1897H68.2415Z" fill="#9893A3"/>
</g>
<rect x="88" width="32" height="32" rx="1" fill="white"/>
<path d="M101.071 14.0743H98.4679V21.6988H101.071V14.0743Z" fill="#9893A3"/>
<path d="M100.634 10.5161C100.386 10.3658 100.094 10.2856 99.7957 10.2856C99.5967 10.2856 99.3996 10.3214 99.2158 10.3907C99.0321 10.4601 98.8652 10.5617 98.7249 10.6898C98.5845 10.8179 98.4735 10.97 98.3981 11.1372C98.3227 11.3043 98.2845 11.4834 98.2857 11.6641C98.2874 11.9348 98.3774 12.199 98.5444 12.4233C98.7113 12.6477 98.9478 12.8221 99.2238 12.9246C99.4999 13.0271 99.8033 13.0532 100.096 12.9994C100.388 12.9456 100.656 12.8145 100.867 12.6225C101.077 12.4305 101.22 12.1863 101.277 11.9207C101.335 11.655 101.305 11.3799 101.19 11.1299C101.075 10.8799 100.882 10.6663 100.634 10.5161Z" fill="#9893A3"/>
<path d="M105.251 14.0739H102.743L102.734 21.7142H105.338V17.9413C105.338 16.9489 105.546 15.9879 106.9 15.9879C108.253 15.9879 108.254 17.13 108.254 18.0122V21.6985H110.857V17.516C110.857 15.4602 110.328 13.8849 107.724 13.8849C107.228 13.8672 106.736 13.9722 106.3 14.1886C105.864 14.405 105.502 14.7247 105.251 15.1136V14.0739Z" fill="#9893A3"/>
<defs>
<clipPath id="clip0_172_5599">
<rect x="52.7273" y="9.69678" width="15.5152" height="12.6032" rx="1" fill="white"/>
</clipPath>
</defs>
</svg>
